<?xml version="1.0" standalone="no"?>
 <!DOCTYPE svg PUBLIC "-//W3C//DTD SVG 1.1//EN" 
 "http://www.w3.org/Graphics/SVG/1.1/DTD/svg11.dtd"> 
<svg xmlns="http://www.w3.org/2000/svg" version="1.1" 
    width="29.7002cm" height="21.0007cm" viewBox="0 0 116930 82680 ">
<title>SVG Picture created as ntaduino-Back.svg date 2014/07/10 21:50:20 </title>
  <desc>Picture generated by PCBNEW </desc>
<g style="fill:#000000; fill-opacity:1;stroke:#000000; stroke-opacity:1;
stroke-linecap:round; stroke-linejoin:round; "
 transform="translate(0 0) scale(1 1)">
</g>
<g style="fill:#000000; fill-opacity:0.0; 
stroke:#000000; stroke-width:315; stroke-opacity:1; 
stroke-linecap:round; stroke-linejoin:round;">
<path d="M67500 20500
L46500 20500
" />
<path d="M67500 55500
L67500 20500
" />
<path d="M46500 55500
L46500 20500
" />
<path d="M46500 55500
L67500 55500
" />
</g>
<g style="fill:#000000; fill-opacity:0.0; 
stroke:#000000; stroke-width:216.5; stroke-opacity:1; 
stroke-linecap:round; stroke-linejoin:round;">
<path d="M66350 25300
L65938 24880
" />
<path d="M66350 24580
L65484 24580
L65484 25060
L65525 25180
L65567 25240
L65649 25300
L65773 25300
L65855 25240
L65896 25180
L65938 25060
L65938 24580
" />
<path d="M65896 25840
L65896 26260
" />
<path d="M66350 26440
L66350 25840
L65484 25840
L65484 26440
" />
<path d="M65484 26800
L66350 27220
L65484 27640
" />
<path d="M66350 29680
L66350 28960
" />
<path d="M66350 29320
L65484 29320
L65608 29200
L65690 29080
L65731 28960
" />
<path d="M66268 30220
L66309 30280
L66350 30220
L66309 30160
L66268 30220
L66350 30220
" />
<path d="M66350 31480
L66350 30760
" />
<path d="M66350 31120
L65484 31120
L65608 31000
L65690 30880
L65731 30760
" />
</g>
<g style="fill:#000000; fill-opacity:0.0; 
stroke:#000000; stroke-width:315; stroke-opacity:1; 
stroke-linecap:round; stroke-linejoin:round;">
<path d="M49137 24540
L47562 24540
L49137 25260
L47562 25260
" />
<path d="M47562 25680
L47562 26400
" />
<path d="M49137 26040
L47562 26040
" />
<path d="M48687 26760
L48687 27360
" />
<path d="M49137 26640
L47562 27060
L49137 27480
" />
<path d="M49137 28440
L47562 28440
" />
<path d="M49062 28440
L49137 28320
L49137 28080
L49062 27960
L48987 27900
L48837 27840
L48387 27840
L48237 27900
L48162 27960
L48087 28080
L48087 28320
L48162 28440
" />
<path d="M48087 29580
L49137 29580
" />
<path d="M48087 29040
L48912 29040
L49062 29100
L49137 29220
L49137 29400
L49062 29520
L48987 29580
" />
<path d="M49137 30180
L48087 30180
" />
<path d="M47562 30180
L47637 30120
L47712 30180
L47637 30240
L47562 30180
L47712 30180
" />
<path d="M48087 30780
L49137 30780
" />
<path d="M48237 30780
L48162 30840
L48087 30960
L48087 31140
L48162 31260
L48312 31320
L49137 31320
" />
<path d="M49137 32100
L49062 31980
L48987 31920
L48837 31860
L48387 31860
L48237 31920
L48162 31980
L48087 32100
L48087 32280
L48162 32400
L48237 32460
L48387 32520
L48837 32520
L48987 32460
L49062 32400
L49137 32280
L49137 32100
" />
</g>
<g style="fill:#000000; fill-opacity:0.0; 
stroke:#000000; stroke-width:59.0551; stroke-opacity:1; 
stroke-linecap:round; stroke-linejoin:round;">
</g>
<g style="fill:#000000; fill-opacity:1.0; 
stroke:#000000; stroke-width:59.0551; stroke-opacity:1; 
stroke-linecap:round; stroke-linejoin:round;">
<circle cx="48000" cy="34000" r="954.972" /> 
<circle cx="66000" cy="34000" r="954.972" /> 
<circle cx="66000" cy="22000" r="954.972" /> 
<circle cx="66000" cy="54000" r="954.972" /> 
<circle cx="48000" cy="54000" r="954.972" /> 
<circle cx="50500" cy="36500" r="364.173" /> 
<circle cx="51500" cy="36500" r="364.173" /> 
<circle cx="52500" cy="36500" r="364.173" /> 
<circle cx="53500" cy="36500" r="364.173" /> 
<circle cx="54500" cy="36500" r="364.173" /> 
<circle cx="55500" cy="36500" r="364.173" /> 
<circle cx="56500" cy="36500" r="364.173" /> 
<circle cx="57500" cy="36500" r="364.173" /> 
<circle cx="58500" cy="36500" r="364.173" /> 
<circle cx="59500" cy="36500" r="364.173" /> 
<circle cx="60500" cy="36500" r="364.173" /> 
<circle cx="61500" cy="36500" r="364.173" /> 
<circle cx="62500" cy="36500" r="364.173" /> 
<circle cx="63500" cy="36500" r="364.173" /> 
<circle cx="63500" cy="31500" r="364.173" /> 
<circle cx="62500" cy="31500" r="364.173" /> 
<circle cx="61500" cy="31500" r="364.173" /> 
<circle cx="60500" cy="31500" r="364.173" /> 
<circle cx="59500" cy="31500" r="364.173" /> 
<circle cx="58500" cy="31500" r="364.173" /> 
<circle cx="57500" cy="31500" r="364.173" /> 
<circle cx="56500" cy="31500" r="364.173" /> 
<circle cx="55500" cy="31500" r="364.173" /> 
<circle cx="54500" cy="31500" r="364.173" /> 
<circle cx="53500" cy="31500" r="364.173" /> 
<circle cx="52500" cy="31500" r="364.173" /> 
<circle cx="51500" cy="31500" r="364.173" /> 
<circle cx="50500" cy="31500" r="364.173" /> 
<circle cx="59500" cy="29500" r="364.173" /> 
<circle cx="59500" cy="26500" r="364.173" /> 
<circle cx="50500" cy="29500" r="364.173" /> 
<circle cx="50500" cy="26500" r="364.173" /> 
<circle cx="54500" cy="38500" r="364.173" /> 
<circle cx="54500" cy="41500" r="364.173" /> 
<circle cx="49500" cy="38500" r="364.173" /> 
<circle cx="49500" cy="41500" r="364.173" /> 
<circle cx="54500" cy="45500" r="364.173" /> 
<circle cx="54500" cy="42500" r="364.173" /> 
<circle cx="58500" cy="25500" r="364.173" /> 
<circle cx="58500" cy="28500" r="364.173" /> 
<circle cx="61500" cy="29500" r="364.173" /> 
<circle cx="61500" cy="26500" r="364.173" /> 
<circle cx="51500" cy="29500" r="364.173" /> 
<circle cx="51500" cy="26500" r="364.173" /> 
<circle cx="62500" cy="41500" r="364.173" /> 
<circle cx="62500" cy="38500" r="364.173" /> 
<circle cx="53500" cy="41500" r="364.173" /> 
<circle cx="53500" cy="38500" r="364.173" /> 
<circle cx="56500" cy="46500" r="364.173" /> 
<circle cx="59500" cy="46500" r="364.173" /> 
<circle cx="50500" cy="38500" r="364.173" /> 
<circle cx="50500" cy="41500" r="364.173" /> 
<circle cx="61500" cy="38500" r="364.173" /> 
<circle cx="61500" cy="41500" r="364.173" /> 
<circle cx="63500" cy="38500" r="364.173" /> 
<circle cx="63500" cy="41500" r="364.173" /> 
<circle cx="63500" cy="29500" r="364.173" /> 
<circle cx="63500" cy="26500" r="364.173" /> 
<circle cx="62500" cy="29500" r="364.173" /> 
<circle cx="62500" cy="26500" r="364.173" /> 
<circle cx="52500" cy="38500" r="364.173" /> 
<circle cx="52500" cy="41500" r="364.173" /> 
<circle cx="51500" cy="38500" r="364.173" /> 
<circle cx="51500" cy="41500" r="364.173" /> 
<circle cx="60500" cy="29500" r="364.173" /> 
<circle cx="60500" cy="26500" r="364.173" /> 
<circle cx="54500" cy="29500" r="364.173" /> 
<circle cx="54500" cy="26500" r="364.173" /> 
<circle cx="53500" cy="29500" r="364.173" /> 
<circle cx="53500" cy="26500" r="364.173" /> 
<circle cx="52500" cy="29500" r="364.173" /> 
<circle cx="52500" cy="26500" r="364.173" /> 
<circle cx="61516" cy="51516" r="364.173" /> 
<circle cx="63484" cy="51516" r="364.173" /> 
<circle cx="63484" cy="53484" r="364.173" /> 
<circle cx="61516" cy="53484" r="364.173" /> 
<circle cx="61516" cy="47516" r="364.173" /> 
<circle cx="63484" cy="47516" r="364.173" /> 
<circle cx="63484" cy="49484" r="364.173" /> 
<circle cx="61516" cy="49484" r="364.173" /> 
<circle cx="50516" cy="53484" r="364.173" /> 
<circle cx="50516" cy="51516" r="364.173" /> 
<circle cx="52484" cy="51516" r="364.173" /> 
<circle cx="52484" cy="53484" r="364.173" /> 
<circle cx="48500" cy="22500" r="364.173" /> 
<circle cx="49500" cy="22500" r="364.173" /> 
<circle cx="50500" cy="22500" r="364.173" /> 
<circle cx="51500" cy="22500" r="364.173" /> 
<circle cx="52500" cy="22500" r="364.173" /> 
<circle cx="53500" cy="22500" r="364.173" /> 
<circle cx="54500" cy="22500" r="364.173" /> 
<circle cx="55500" cy="22500" r="364.173" /> 
<circle cx="49500" cy="46500" r="364.173" /> 
<circle cx="49500" cy="45500" r="364.173" /> 
<circle cx="58500" cy="22500" r="364.173" /> 
<circle cx="59500" cy="22500" r="364.173" /> 
<circle cx="56500" cy="22500" r="364.173" /> 
<circle cx="57500" cy="22500" r="364.173" /> 
<circle cx="60500" cy="22500" r="364.173" /> 
<circle cx="61500" cy="22500" r="364.173" /> 
<circle cx="49500" cy="42500" r="364.173" /> 
<circle cx="49500" cy="43500" r="364.173" /> 
<circle cx="49500" cy="49500" r="364.173" /> 
<circle cx="49500" cy="48500" r="364.173" /> 
<circle cx="58500" cy="40500" r="364.173" /> 
<circle cx="58500" cy="38500" r="364.173" /> 
</g>
<g style="fill:#000000; fill-opacity:1.0; 
stroke:#000000; stroke-width:787.402; stroke-opacity:1; 
stroke-linecap:round; stroke-linejoin:round;">
<path d="M51524 35427
L51524 35540
" />
<path d="M52524 35427
L52524 35540
" />
<path d="M53524 35427
L53524 35540
" />
<path d="M54524 35427
L54524 35540
" />
<path d="M55524 35427
L55524 35540
" />
<path d="M56524 35427
L56524 35540
" />
<path d="M57524 35427
L57524 35540
" />
<path d="M58524 35427
L58524 35540
" />
<path d="M59524 35427
L59524 35540
" />
<path d="M60524 35427
L60524 35540
" />
<path d="M61524 35427
L61524 35540
" />
<path d="M62524 35427
L62524 35540
" />
<path d="M63524 35427
L63524 35540
" />
<path d="M50524 35427
L50524 35540
" />
<path d="M63524 32427
L63524 32540
" />
<path d="M62524 32427
L62524 32540
" />
<path d="M61524 32427
L61524 32540
" />
<path d="M60524 32427
L60524 32540
" />
<path d="M59524 32427
L59524 32540
" />
<path d="M58524 32427
L58524 32540
" />
<path d="M57524 32427
L57524 32540
" />
<path d="M56524 32427
L56524 32540
" />
<path d="M55524 32427
L55524 32540
" />
<path d="M54524 32427
L54524 32540
" />
<path d="M53524 32427
L53524 32540
" />
<path d="M52524 32427
L52524 32540
" />
<path d="M51524 32427
L51524 32540
" />
<path d="M50524 32427
L50524 32540
" />
</g>
<g style="fill:#000000; fill-opacity:1.0; 
stroke:#000000; stroke-width:59.0551; stroke-opacity:1; 
stroke-linecap:round; stroke-linejoin:round;">
<circle cx="49500" cy="37500" r="364.173" /> 
<circle cx="49500" cy="34500" r="364.173" /> 
<circle cx="56500" cy="45500" r="364.173" /> 
<circle cx="59500" cy="45500" r="364.173" /> 
<circle cx="55500" cy="44500" r="364.173" /> 
<circle cx="58500" cy="44500" r="364.173" /> 
<circle cx="48500" cy="37500" r="364.173" /> 
<circle cx="48500" cy="35500" r="364.173" /> 
<circle cx="57500" cy="28500" r="364.173" /> 
<circle cx="57500" cy="26500" r="364.173" /> 
<circle cx="57200" cy="42300" r="364.173" /> 
<circle cx="59200" cy="42300" r="364.173" /> 
<circle cx="57200" cy="43400" r="364.173" /> 
<circle cx="59200" cy="43400" r="364.173" /> 
<circle cx="56500" cy="40500" r="364.173" /> 
<circle cx="56500" cy="38500" r="364.173" /> 
<circle cx="56500" cy="29500" r="364.173" /> 
<circle cx="58500" cy="29500" r="364.173" /> 
</g>
<g style="fill:#000000; fill-opacity:1.0; 
stroke:#000000; stroke-width:649.606; stroke-opacity:1; 
stroke-linecap:round; stroke-linejoin:round;">
<path d="M56931 49650
L57068 49650
" />
<path d="M55931 49650
L56068 49650
" />
<path d="M55931 50437
L56068 50437
" />
<path d="M56931 50437
L57068 50437
" />
</g>
<g style="fill:#000000; fill-opacity:1.0; 
stroke:#000000; stroke-width:59.0551; stroke-opacity:1; 
stroke-linecap:round; stroke-linejoin:round;">
<circle cx="58862" cy="51500" r="620.079" /> 
<circle cx="54138" cy="51500" r="620.079" /> 
<circle cx="63500" cy="22500" r="364.173" /> 
<circle cx="63500" cy="23500" r="364.173" /> 
<circle cx="63500" cy="24500" r="364.173" /> 
<circle cx="63500" cy="25500" r="364.173" /> 
<circle cx="55500" cy="27500" r="364.173" /> 
<circle cx="56500" cy="27500" r="364.173" /> 
<circle cx="62500" cy="46000" r="364.173" /> 
<circle cx="62500" cy="43000" r="364.173" /> 
<circle cx="53500" cy="44000" r="364.173" /> 
<circle cx="53500" cy="47000" r="364.173" /> 
<circle cx="52500" cy="48500" r="364.173" /> 
<circle cx="52500" cy="49500" r="364.173" /> 
</g>
<g style="fill:#000000; fill-opacity:1.0; 
stroke:#000000; stroke-width:0; stroke-opacity:1; 
stroke-linecap:round; stroke-linejoin:round;">
</g>
<g style="fill:#000000; fill-opacity:1.0; 
stroke:#000000; stroke-width:59.0551; stroke-opacity:1; 
stroke-linecap:round; stroke-linejoin:round;">
<polyline style="fill-rule:evenodd;"
points="56842,54745
56732,55335
56268,55335
56158,54745
56842,54745
" /> 
</g>
<g style="fill:#000000; fill-opacity:1.0; 
stroke:#000000; stroke-width:0; stroke-opacity:1; 
stroke-linecap:round; stroke-linejoin:round;">
</g>
<g style="fill:#000000; fill-opacity:1.0; 
stroke:#000000; stroke-width:59.0551; stroke-opacity:1; 
stroke-linecap:round; stroke-linejoin:round;">
<polyline style="fill-rule:evenodd;"
points="57692,54108
58031,54603
57703,54931
57208,54592
57692,54108
" /> 
</g>
<g style="fill:#000000; fill-opacity:1.0; 
stroke:#000000; stroke-width:0; stroke-opacity:1; 
stroke-linecap:round; stroke-linejoin:round;">
</g>
<g style="fill:#000000; fill-opacity:1.0; 
stroke:#000000; stroke-width:59.0551; stroke-opacity:1; 
stroke-linecap:round; stroke-linejoin:round;">
<polyline style="fill-rule:evenodd;"
points="57845,53058
58435,53168
58435,53632
57845,53742
57845,53058
" /> 
</g>
<g style="fill:#000000; fill-opacity:1.0; 
stroke:#000000; stroke-width:0; stroke-opacity:1; 
stroke-linecap:round; stroke-linejoin:round;">
</g>
<g style="fill:#000000; fill-opacity:1.0; 
stroke:#000000; stroke-width:59.0551; stroke-opacity:1; 
stroke-linecap:round; stroke-linejoin:round;">
<polyline style="fill-rule:evenodd;"
points="57208,52207
57703,51868
58031,52196
57692,52691
57208,52207
" /> 
</g>
<g style="fill:#000000; fill-opacity:1.0; 
stroke:#000000; stroke-width:0; stroke-opacity:1; 
stroke-linecap:round; stroke-linejoin:round;">
</g>
<g style="fill:#000000; fill-opacity:1.0; 
stroke:#000000; stroke-width:59.0551; stroke-opacity:1; 
stroke-linecap:round; stroke-linejoin:round;">
<polyline style="fill-rule:evenodd;"
points="55791,54592
55296,54931
54968,54603
55307,54108
55791,54592
" /> 
</g>
<g style="fill:#000000; fill-opacity:1.0; 
stroke:#000000; stroke-width:0; stroke-opacity:1; 
stroke-linecap:round; stroke-linejoin:round;">
</g>
<g style="fill:#000000; fill-opacity:1.0; 
stroke:#000000; stroke-width:59.0551; stroke-opacity:1; 
stroke-linecap:round; stroke-linejoin:round;">
<polyline style="fill-rule:evenodd;"
points="55155,53742
54565,53632
54565,53168
55155,53058
55155,53742
" /> 
</g>
<g style="fill:#000000; fill-opacity:1.0; 
stroke:#000000; stroke-width:0; stroke-opacity:1; 
stroke-linecap:round; stroke-linejoin:round;">
</g>
<g style="fill:#000000; fill-opacity:1.0; 
stroke:#000000; stroke-width:59.0551; stroke-opacity:1; 
stroke-linecap:round; stroke-linejoin:round;">
<polyline style="fill-rule:evenodd;"
points="55307,52691
54968,52196
55296,51868
55791,52207
55307,52691
" /> 
</g>
<g style="fill:#000000; fill-opacity:1.0; 
stroke:#000000; stroke-width:0; stroke-opacity:1; 
stroke-linecap:round; stroke-linejoin:round;">
</g>
<g style="fill:#000000; fill-opacity:1.0; 
stroke:#000000; stroke-width:59.0551; stroke-opacity:1; 
stroke-linecap:round; stroke-linejoin:round;">
<polyline style="fill-rule:evenodd;"
points="56631,53892
56794,54794
56205,54794
56368,53892
56631,53892
" /> 
</g>
<g style="fill:#000000; fill-opacity:1.0; 
stroke:#000000; stroke-width:0; stroke-opacity:1; 
stroke-linecap:round; stroke-linejoin:round;">
</g>
<g style="fill:#000000; fill-opacity:1.0; 
stroke:#000000; stroke-width:59.0551; stroke-opacity:1; 
stroke-linecap:round; stroke-linejoin:round;">
<polyline style="fill-rule:evenodd;"
points="56434,53904
56239,54800
55695,54574
56191,53804
56434,53904
" /> 
</g>
<g style="fill:#000000; fill-opacity:1.0; 
stroke:#000000; stroke-width:0; stroke-opacity:1; 
stroke-linecap:round; stroke-linejoin:round;">
</g>
<g style="fill:#000000; fill-opacity:1.0; 
stroke:#000000; stroke-width:59.0551; stroke-opacity:1; 
stroke-linecap:round; stroke-linejoin:round;">
<polyline style="fill-rule:evenodd;"
points="56808,53804
57304,54574
56760,54800
56565,53904
56808,53804
" /> 
</g>
<g style="fill:#000000; fill-opacity:1.0; 
stroke:#000000; stroke-width:0; stroke-opacity:1; 
stroke-linecap:round; stroke-linejoin:round;">
</g>
<g style="fill:#000000; fill-opacity:1.0; 
stroke:#000000; stroke-width:59.0551; stroke-opacity:1; 
stroke-linecap:round; stroke-linejoin:round;">
<polyline style="fill-rule:evenodd;"
points="56940,53654
57693,54176
57276,54593
56754,53840
56940,53654
" /> 
</g>
<g style="fill:#000000; fill-opacity:1.0; 
stroke:#000000; stroke-width:0; stroke-opacity:1; 
stroke-linecap:round; stroke-linejoin:round;">
</g>
<g style="fill:#000000; fill-opacity:1.0; 
stroke:#000000; stroke-width:59.0551; stroke-opacity:1; 
stroke-linecap:round; stroke-linejoin:round;">
<polyline style="fill-rule:evenodd;"
points="56245,53840
55723,54593
55306,54176
56059,53654
56245,53840
" /> 
</g>
<g style="fill:#000000; fill-opacity:1.0; 
stroke:#000000; stroke-width:0; stroke-opacity:1; 
stroke-linecap:round; stroke-linejoin:round;">
</g>
<g style="fill:#000000; fill-opacity:1.0; 
stroke:#000000; stroke-width:59.0551; stroke-opacity:1; 
stroke-linecap:round; stroke-linejoin:round;">
<polyline style="fill-rule:evenodd;"
points="57004,53465
57900,53660
57674,54204
56904,53708
57004,53465
" /> 
</g>
<g style="fill:#000000; fill-opacity:1.0; 
stroke:#000000; stroke-width:0; stroke-opacity:1; 
stroke-linecap:round; stroke-linejoin:round;">
</g>
<g style="fill:#000000; fill-opacity:1.0; 
stroke:#000000; stroke-width:59.0551; stroke-opacity:1; 
stroke-linecap:round; stroke-linejoin:round;">
<polyline style="fill-rule:evenodd;"
points="56095,53708
55325,54204
55099,53660
55995,53465
56095,53708
" /> 
</g>
<g style="fill:#000000; fill-opacity:1.0; 
stroke:#000000; stroke-width:0; stroke-opacity:1; 
stroke-linecap:round; stroke-linejoin:round;">
</g>
<g style="fill:#000000; fill-opacity:1.0; 
stroke:#000000; stroke-width:59.0551; stroke-opacity:1; 
stroke-linecap:round; stroke-linejoin:round;">
<polyline style="fill-rule:evenodd;"
points="56992,53268
57894,53105
57894,53694
56992,53531
56992,53268
" /> 
</g>
<g style="fill:#000000; fill-opacity:1.0; 
stroke:#000000; stroke-width:0; stroke-opacity:1; 
stroke-linecap:round; stroke-linejoin:round;">
</g>
<g style="fill:#000000; fill-opacity:1.0; 
stroke:#000000; stroke-width:59.0551; stroke-opacity:1; 
stroke-linecap:round; stroke-linejoin:round;">
<polyline style="fill-rule:evenodd;"
points="56008,53531
55106,53694
55106,53105
56008,53268
56008,53531
" /> 
</g>
<g style="fill:#000000; fill-opacity:1.0; 
stroke:#000000; stroke-width:0; stroke-opacity:1; 
stroke-linecap:round; stroke-linejoin:round;">
</g>
<g style="fill:#000000; fill-opacity:1.0; 
stroke:#000000; stroke-width:59.0551; stroke-opacity:1; 
stroke-linecap:round; stroke-linejoin:round;">
<polyline style="fill-rule:evenodd;"
points="55995,53334
55099,53139
55325,52595
56095,53091
55995,53334
" /> 
</g>
<g style="fill:#000000; fill-opacity:1.0; 
stroke:#000000; stroke-width:0; stroke-opacity:1; 
stroke-linecap:round; stroke-linejoin:round;">
</g>
<g style="fill:#000000; fill-opacity:1.0; 
stroke:#000000; stroke-width:59.0551; stroke-opacity:1; 
stroke-linecap:round; stroke-linejoin:round;">
<polyline style="fill-rule:evenodd;"
points="56904,53091
57674,52595
57900,53139
57004,53334
56904,53091
" /> 
</g>
<g style="fill:#000000; fill-opacity:1.0; 
stroke:#000000; stroke-width:0; stroke-opacity:1; 
stroke-linecap:round; stroke-linejoin:round;">
</g>
<g style="fill:#000000; fill-opacity:1.0; 
stroke:#000000; stroke-width:59.0551; stroke-opacity:1; 
stroke-linecap:round; stroke-linejoin:round;">
<polyline style="fill-rule:evenodd;"
points="56754,52959
57276,52206
57693,52623
56940,53145
56754,52959
" /> 
</g>
<g style="fill:#000000; fill-opacity:1.0; 
stroke:#000000; stroke-width:0; stroke-opacity:1; 
stroke-linecap:round; stroke-linejoin:round;">
</g>
<g style="fill:#000000; fill-opacity:1.0; 
stroke:#000000; stroke-width:59.0551; stroke-opacity:1; 
stroke-linecap:round; stroke-linejoin:round;">
<polyline style="fill-rule:evenodd;"
points="56059,53145
55306,52623
55723,52206
56245,52959
56059,53145
" /> 
</g>
<g style="fill:#000000; fill-opacity:1.0; 
stroke:#000000; stroke-width:0; stroke-opacity:1; 
stroke-linecap:round; stroke-linejoin:round;">
</g>
<g style="fill:#000000; fill-opacity:1.0; 
stroke:#000000; stroke-width:59.0551; stroke-opacity:1; 
stroke-linecap:round; stroke-linejoin:round;">
<polyline style="fill-rule:evenodd;"
points="56172,53027
55604,52322
55849,52158
56281,52954
56172,53027
" /> 
</g>
<g style="fill:#000000; fill-opacity:1.0; 
stroke:#000000; stroke-width:0; stroke-opacity:1; 
stroke-linecap:round; stroke-linejoin:round;">
</g>
<g style="fill:#000000; fill-opacity:1.0; 
stroke:#000000; stroke-width:59.0551; stroke-opacity:1; 
stroke-linecap:round; stroke-linejoin:round;">
<polyline style="fill-rule:evenodd;"
points="56718,52954
57150,52158
57395,52322
56827,53027
56718,52954
" /> 
</g>
<g style="fill:#000000; fill-opacity:1.0; 
stroke:#000000; stroke-width:492; stroke-opacity:1; 
stroke-linecap:round; stroke-linejoin:round;">
<path d="M54500 43000
L54500 42500
" />
<path d="M56524 35484
L56524 34476
" />
<path d="M56500 38500
L54500 40500
" />
<path d="M63500 41500
L63500 43500
" />
<path d="M63500 43500
L63000 44000
" />
<path d="M63000 44000
L62000 44000
" />
<path d="M62000 44000
L61500 43500
" />
<path d="M61500 43500
L61500 41500
" />
<path d="M56524 36476
L56500 36500
" />
<path d="M49500 41500
L50500 41500
" />
<path d="M56500 36500
L56500 38500
" />
<path d="M60500 47000
L61250 46250
" />
<path d="M54500 40500
L54500 41500
" />
<path d="M56524 35484
L56524 36476
" />
<path d="M58500 28500
L58500 29500
" />
<path d="M60500 47000
L60000 47500
" />
<path d="M54500 40500
L51000 40500
" />
<path d="M50500 41000
L50500 41500
" />
<path d="M58500 33000
L58500 32508
" />
<path d="M53500 44000
L54500 43000
" />
<path d="M57850 49650
L60000 47500
" />
<path d="M57850 49650
L57000 49650
" />
<path d="M57000 47500
L57500 47000
" />
<path d="M57500 47000
L57500 45000
" />
<path d="M57500 45000
L55000 42500
" />
<path d="M55000 42500
L54500 42500
" />
<path d="M57000 49650
L57000 47500
" />
<path d="M61250 44750
L62000 44000
" />
<path d="M61250 46250
L61250 44750
" />
<path d="M58500 32508
L58524 32484
" />
<path d="M58500 29500
L58500 31500
" />
<path d="M56524 34476
L57500 33500
" />
<path d="M51000 40500
L50500 41000
" />
<path d="M57500 33500
L58000 33500
" />
<path d="M58524 31524
L58524 32484
" />
<path d="M54500 41500
L54500 42500
" />
<path d="M58500 31500
L58524 31524
" />
<path d="M58000 33500
L58500 33000
" />
<path d="M50524 35484
L48516 35484
" />
<path d="M48516 35484
L48500 35500
" />
<path d="M50524 35484
L50524 36476
" />
<path d="M50524 36476
L50500 36500
" />
<path d="M50500 36500
L50500 38500
" />
<path d="M58500 40500
L59200 41200
" />
<path d="M59200 41200
L59200 42300
" />
<path d="M58500 40500
L59500 39500
" />
<path d="M59500 36500
L59524 36476
" />
<path d="M59524 36476
L59524 35484
" />
<path d="M59500 39500
L59500 36500
" />
<path d="M59500 46500
L60000 46500
" />
<path d="M60000 46500
L60500 46000
" />
<path d="M60524 35484
L60524 36476
" />
<path d="M60524 36476
L60500 36500
" />
<path d="M60500 46000
L60500 36500
" />
<path d="M61524 35484
L61524 36476
" />
<path d="M64000 40500
L64500 41000
" />
<path d="M61524 36476
L61500 36500
" />
<path d="M61500 36500
L61500 38500
" />
<path d="M64500 41000
L64500 46500
" />
<path d="M64500 46500
L63484 47516
" />
<path d="M62500 40500
L63500 40500
" />
<path d="M61500 38500
L61500 39500
" />
<path d="M61500 39500
L62500 40500
" />
<path d="M63500 40500
L64000 40500
" />
<path d="M62524 35484
L62524 36476
" />
<path d="M62500 36500
L62500 38500
" />
<path d="M62524 36476
L62500 36500
" />
<path d="M63524 35484
L63524 36476
" />
<path d="M63500 36500
L63500 38500
" />
<path d="M65250 49750
L63500 51500
" />
<path d="M63500 51500
L63484 51516
" />
<path d="M63500 38500
L63500 39000
" />
<path d="M63524 36476
L63500 36500
" />
<path d="M65250 40750
L65250 49750
" />
<path d="M63500 39000
L65250 40750
" />
<path d="M63524 32484
L63524 31524
" />
<path d="M63524 31524
L63500 31500
" />
<path d="M63500 31500
L63500 29500
" />
<path d="M62500 31500
L62524 31524
" />
<path d="M62524 31524
L62524 32484
" />
<path d="M62500 29500
L62500 31500
" />
<path d="M61500 31500
L61500 29500
" />
<path d="M61524 31524
L61500 31500
" />
<path d="M61524 32484
L61524 31524
" />
<path d="M60524 32484
L60524 31524
" />
<path d="M60524 31524
L60500 31500
" />
<path d="M60500 31500
L60500 29500
" />
<path d="M59500 31500
L59500 29500
" />
<path d="M59524 32484
L59524 31524
" />
<path d="M59524 31524
L59500 31500
" />
<path d="M51524 35484
L51524 36476
" />
<path d="M51500 36500
L51500 38500
" />
<path d="M51524 36476
L51500 36500
" />
<path d="M57500 31500
L57500 28500
" />
<path d="M57524 32484
L57524 31524
" />
<path d="M57524 31524
L57500 31500
" />
<path d="M55500 26750
L55500 27500
" />
<path d="M55500 31500
L55500 27500
" />
<path d="M55524 32484
L55524 31524
" />
<path d="M55524 31524
L55500 31500
" />
<path d="M58500 25500
L56750 25500
" />
<path d="M56750 25500
L55500 26750
" />
<path d="M54500 31500
L54500 29500
" />
<path d="M54524 31524
L54500 31500
" />
<path d="M54524 32484
L54524 31524
" />
<path d="M53524 31524
L53500 31500
" />
<path d="M53524 32484
L53524 31524
" />
<path d="M53500 31500
L53500 29500
" />
<path d="M52524 31524
L52500 31500
" />
<path d="M52524 32484
L52524 31524
" />
<path d="M52500 31500
L52500 29500
" />
<path d="M51524 32484
L51524 31524
" />
<path d="M51524 31524
L51500 31500
" />
<path d="M51500 31500
L51500 29500
" />
<path d="M50500 31500
L50524 31524
" />
<path d="M50500 29500
L50500 31500
" />
<path d="M50524 31524
L50524 32484
" />
<path d="M52524 35484
L52524 36476
" />
<path d="M52524 36476
L52500 36500
" />
<path d="M52500 36500
L52500 38500
" />
<path d="M53524 35484
L53524 36476
" />
<path d="M53524 36476
L53500 36500
" />
<path d="M53500 36500
L53500 38500
" />
<path d="M54500 39000
L54500 38500
" />
<path d="M54000 39500
L54500 39000
" />
<path d="M49500 39500
L54000 39500
" />
<path d="M54524 35484
L54524 36476
" />
<path d="M49500 45000
L48500 44000
" />
<path d="M54524 36476
L54500 36500
" />
<path d="M48500 44000
L48500 40500
" />
<path d="M48500 40500
L49500 39500
" />
<path d="M54500 36500
L54500 38500
" />
<path d="M49500 45500
L49500 45000
" />
<path d="M55524 35484
L55524 34524
" />
<path d="M50000 34000
L49500 34500
" />
<path d="M55000 34000
L50000 34000
" />
<path d="M55524 34524
L55000 34000
" />
<path d="M55524 35484
L55524 36476
" />
<path d="M55524 36476
L55500 36500
" />
<path d="M58500 38500
L58500 39100
" />
<path d="M58300 43400
L59200 43400
" />
<path d="M58300 41600
L58300 43400
" />
<path d="M57700 41000
L58300 41600
" />
<path d="M57700 39900
L57700 41000
" />
<path d="M58500 39100
L57700 39900
" />
<path d="M58500 36500
L58524 36476
" />
<path d="M58524 36476
L58524 35484
" />
<path d="M58500 36500
L58500 38500
" />
<path d="M56500 40500
L56500 41600
" />
<path d="M56500 41600
L57200 42300
" />
<path d="M57200 42300
L57200 43500
" />
<path d="M58200 44500
L58500 44500
" />
<path d="M57200 43500
L58200 44500
" />
<path d="M56500 40500
L56500 39900
" />
<path d="M57500 38900
L57500 36500
" />
<path d="M56500 39900
L57500 38900
" />
<path d="M58862 51500
L61500 51500
" />
<path d="M62500 52500
L64250 52500
" />
<path d="M66000 50750
L66000 40500
" />
<path d="M58500 27500
L56500 27500
" />
<path d="M49500 48500
L49000 48500
" />
<path d="M49000 50500
L53500 50500
" />
<path d="M48500 50000
L49000 50500
" />
<path d="M48500 49000
L48500 50000
" />
<path d="M49000 48500
L48500 49000
" />
<path d="M62500 48750
L62500 50532
" />
<path d="M62500 50532
L61516 51516
" />
<path d="M58250 27250
L57500 26500
" />
<path d="M61500 21500
L64000 21500
" />
<path d="M64500 33500
L64500 27500
" />
<path d="M61500 51500
L61516 51516
" />
<path d="M53500 21500
L55500 21500
" />
<path d="M53500 22500
L53500 21500
" />
<path d="M61500 21500
L61500 22500
" />
<path d="M54138 51500
L54138 51138
" />
<path d="M58862 51500
L54138 51500
" />
<path d="M49500 22500
L49500 21750
" />
<path d="M58500 27500
L64500 27500
" />
<path d="M53138 52500
L54138 51500
" />
<path d="M51500 52500
L53138 52500
" />
<path d="M50000 46500
L49500 46500
" />
<path d="M59500 22500
L59500 21500
" />
<path d="M49500 43500
L49500 43750
" />
<path d="M49500 21500
L51500 21500
" />
<path d="M61516 47766
L62500 48750
" />
<path d="M64500 33500
L64000 34000
" />
<path d="M56500 29500
L56500 27500
" />
<path d="M54138 51138
L53500 50500
" />
<path d="M57500 22500
L57500 21500
" />
<path d="M50500 46000
L50000 46500
" />
<path d="M66000 40500
L64500 39000
" />
<path d="M53500 50500
L52500 49500
" />
<path d="M56524 31524
L56500 31500
" />
<path d="M64500 22000
L64500 24500
" />
<path d="M57500 36500
L57524 36476
" />
<path d="M57524 36476
L57524 35484
" />
<path d="M58000 34500
L58500 34500
" />
<path d="M59500 21500
L61500 21500
" />
<path d="M51500 21500
L53500 21500
" />
<path d="M62500 48750
L62500 46000
" />
<path d="M64500 39000
L64500 34500
" />
<path d="M56500 27500
L57500 26500
" />
<path d="M64250 52500
L66000 50750
" />
<path d="M55500 22500
L55500 21500
" />
<path d="M61516 47516
L61516 47766
" />
<path d="M57524 35484
L57524 34976
" />
<path d="M58250 27250
L58500 27500
" />
<path d="M64000 34000
L59000 34000
" />
<path d="M59500 45500
L58500 44500
" />
<path d="M63500 24500
L64500 24500
" />
<path d="M57000 50437
L57799 50437
" />
<path d="M49500 21750
L49500 21500
" />
<path d="M49500 46500
L49500 48500
" />
<path d="M55500 21500
L57500 21500
" />
<path d="M61516 51516
L62500 52500
" />
<path d="M56524 32484
L56524 31524
" />
<path d="M57524 34976
L58000 34500
" />
<path d="M64500 24500
L64500 27500
" />
<path d="M51500 22500
L51500 21500
" />
<path d="M56500 31500
L56500 27500
" />
<path d="M57500 21500
L59500 21500
" />
<path d="M64500 34500
L64000 34000
" />
<path d="M58500 34500
L59000 34000
" />
<path d="M49500 43750
L50500 44750
" />
<path d="M50500 44750
L50500 46000
" />
<path d="M64000 21500
L64500 22000
" />
<path d="M57799 50437
L58862 51500
" />
<path d="M50516 53484
L51500 52500
" />
<path d="M51500 42250
L51500 41500
" />
<path d="M51250 42500
L51500 42250
" />
<path d="M49500 42500
L51250 42500
" />
<path d="M52500 41500
L52500 42500
" />
<path d="M50500 49500
L49500 49500
" />
<path d="M51500 48500
L50500 49500
" />
<path d="M51500 43500
L51500 48500
" />
<path d="M52500 42500
L51500 43500
" />
<path d="M62500 41500
L62500 43000
" />
<path d="M58500 23000
L59500 24000
" />
<path d="M58500 22500
L58500 23000
" />
<path d="M59500 24000
L59500 26500
" />
<path d="M53750 45000
L54250 44500
" />
<path d="M53500 45750
L53500 45000
" />
<path d="M54250 44500
L55500 44500
" />
<path d="M54750 49750
L54750 47000
" />
<path d="M53500 42750
L52500 43750
" />
<path d="M53000 45000
L53500 45000
" />
<path d="M55437 50437
L54750 49750
" />
<path d="M54750 47000
L53500 45750
" />
<path d="M53500 45000
L53750 45000
" />
<path d="M53500 41500
L53500 42750
" />
<path d="M56000 50437
L55437 50437
" />
<path d="M52500 44500
L53000 45000
" />
<path d="M52500 43750
L52500 44500
" />
<path d="M50516 51516
L49516 51516
" />
<path d="M49250 38500
L49500 38500
" />
<path d="M48266 51516
L49516 51516
" />
<path d="M47750 51000
L48266 51516
" />
<path d="M47750 40000
L47750 51000
" />
<path d="M49250 38500
L47750 40000
" />
<path d="M49500 38500
L49500 37500
" />
<path d="M49500 37500
L48500 37500
" />
<path d="M63500 22500
L62750 22500
" />
<path d="M62750 22500
L61500 23750
" />
<path d="M61500 23750
L61500 26500
" />
<path d="M63500 25500
L63500 26500
" />
<path d="M62500 24000
L62500 26500
" />
<path d="M63000 23500
L62500 24000
" />
<path d="M63500 23500
L63000 23500
" />
<path d="M52500 48500
L52500 48000
" />
<path d="M52500 48000
L53500 47000
" />
<path d="M60500 22500
L60500 26500
" />
<path d="M54500 26500
L54500 25000
" />
<path d="M54500 25000
L56500 23000
" />
<path d="M56500 23000
L56500 22500
" />
<path d="M52500 26500
L52500 22500
" />
<path d="M54500 23000
L54500 22500
" />
<path d="M53500 24000
L54500 23000
" />
<path d="M53500 26500
L53500 24000
" />
<path d="M50500 23250
L50500 22500
" />
<path d="M51500 24250
L50500 23250
" />
<path d="M51500 26500
L51500 24250
" />
<path d="M50500 26500
L50500 25000
" />
<path d="M48500 23000
L48500 22500
" />
<path d="M50500 25000
L48500 23000
" />
<path d="M56500 46500
L56000 47000
" />
<path d="M54500 45500
L56500 45500
" />
<path d="M56000 49650
L56000 48500
" />
<path d="M56500 45500
L56500 46500
" />
<path d="M56000 47000
L56000 48500
" />
</g>
<g style="fill:#FFFFFF; fill-opacity:1.0; 
stroke:#FFFFFF; stroke-width:59.0551; stroke-opacity:1; 
stroke-linecap:round; stroke-linejoin:round;">
<circle cx="48000" cy="34000" r="570.472" /> 
<circle cx="66000" cy="34000" r="570.472" /> 
<circle cx="66000" cy="22000" r="570.472" /> 
<circle cx="66000" cy="54000" r="570.472" /> 
<circle cx="48000" cy="54000" r="570.472" /> 
<circle cx="50500" cy="36500" r="167.323" /> 
<circle cx="51500" cy="36500" r="167.323" /> 
<circle cx="52500" cy="36500" r="167.323" /> 
<circle cx="53500" cy="36500" r="167.323" /> 
<circle cx="54500" cy="36500" r="167.323" /> 
<circle cx="55500" cy="36500" r="167.323" /> 
<circle cx="56500" cy="36500" r="167.323" /> 
<circle cx="57500" cy="36500" r="167.323" /> 
<circle cx="58500" cy="36500" r="167.323" /> 
<circle cx="59500" cy="36500" r="167.323" /> 
<circle cx="60500" cy="36500" r="167.323" /> 
<circle cx="61500" cy="36500" r="167.323" /> 
<circle cx="62500" cy="36500" r="167.323" /> 
<circle cx="63500" cy="36500" r="167.323" /> 
<circle cx="63500" cy="31500" r="167.323" /> 
<circle cx="62500" cy="31500" r="167.323" /> 
<circle cx="61500" cy="31500" r="167.323" /> 
<circle cx="60500" cy="31500" r="167.323" /> 
<circle cx="59500" cy="31500" r="167.323" /> 
<circle cx="58500" cy="31500" r="167.323" /> 
<circle cx="57500" cy="31500" r="167.323" /> 
<circle cx="56500" cy="31500" r="167.323" /> 
<circle cx="55500" cy="31500" r="167.323" /> 
<circle cx="54500" cy="31500" r="167.323" /> 
<circle cx="53500" cy="31500" r="167.323" /> 
<circle cx="52500" cy="31500" r="167.323" /> 
<circle cx="51500" cy="31500" r="167.323" /> 
<circle cx="50500" cy="31500" r="167.323" /> 
<circle cx="59500" cy="29500" r="167.323" /> 
<circle cx="59500" cy="26500" r="167.323" /> 
<circle cx="50500" cy="29500" r="167.323" /> 
<circle cx="50500" cy="26500" r="167.323" /> 
<circle cx="54500" cy="38500" r="167.323" /> 
<circle cx="54500" cy="41500" r="167.323" /> 
<circle cx="49500" cy="38500" r="167.323" /> 
<circle cx="49500" cy="41500" r="167.323" /> 
<circle cx="54500" cy="45500" r="167.323" /> 
<circle cx="54500" cy="42500" r="167.323" /> 
<circle cx="58500" cy="25500" r="167.323" /> 
<circle cx="58500" cy="28500" r="167.323" /> 
<circle cx="61500" cy="29500" r="167.323" /> 
<circle cx="61500" cy="26500" r="167.323" /> 
<circle cx="51500" cy="29500" r="167.323" /> 
<circle cx="51500" cy="26500" r="167.323" /> 
<circle cx="62500" cy="41500" r="167.323" /> 
<circle cx="62500" cy="38500" r="167.323" /> 
<circle cx="53500" cy="41500" r="167.323" /> 
<circle cx="53500" cy="38500" r="167.323" /> 
<circle cx="56500" cy="46500" r="167.323" /> 
<circle cx="59500" cy="46500" r="167.323" /> 
<circle cx="50500" cy="38500" r="167.323" /> 
<circle cx="50500" cy="41500" r="167.323" /> 
<circle cx="61500" cy="38500" r="167.323" /> 
<circle cx="61500" cy="41500" r="167.323" /> 
<circle cx="63500" cy="38500" r="167.323" /> 
<circle cx="63500" cy="41500" r="167.323" /> 
<circle cx="63500" cy="29500" r="167.323" /> 
<circle cx="63500" cy="26500" r="167.323" /> 
<circle cx="62500" cy="29500" r="167.323" /> 
<circle cx="62500" cy="26500" r="167.323" /> 
<circle cx="52500" cy="38500" r="167.323" /> 
<circle cx="52500" cy="41500" r="167.323" /> 
<circle cx="51500" cy="38500" r="167.323" /> 
<circle cx="51500" cy="41500" r="167.323" /> 
<circle cx="60500" cy="29500" r="167.323" /> 
<circle cx="60500" cy="26500" r="167.323" /> 
<circle cx="54500" cy="29500" r="167.323" /> 
<circle cx="54500" cy="26500" r="167.323" /> 
<circle cx="53500" cy="29500" r="167.323" /> 
<circle cx="53500" cy="26500" r="167.323" /> 
<circle cx="52500" cy="29500" r="167.323" /> 
<circle cx="52500" cy="26500" r="167.323" /> 
<circle cx="61516" cy="51516" r="167.323" /> 
<circle cx="63484" cy="51516" r="167.323" /> 
<circle cx="63484" cy="53484" r="167.323" /> 
<circle cx="61516" cy="53484" r="167.323" /> 
<circle cx="61516" cy="47516" r="167.323" /> 
<circle cx="63484" cy="47516" r="167.323" /> 
<circle cx="63484" cy="49484" r="167.323" /> 
<circle cx="61516" cy="49484" r="167.323" /> 
<circle cx="50516" cy="53484" r="167.323" /> 
<circle cx="50516" cy="51516" r="167.323" /> 
<circle cx="52484" cy="51516" r="167.323" /> 
<circle cx="52484" cy="53484" r="167.323" /> 
<circle cx="48500" cy="22500" r="167.323" /> 
<circle cx="49500" cy="22500" r="167.323" /> 
<circle cx="50500" cy="22500" r="167.323" /> 
<circle cx="51500" cy="22500" r="167.323" /> 
<circle cx="52500" cy="22500" r="167.323" /> 
<circle cx="53500" cy="22500" r="167.323" /> 
<circle cx="54500" cy="22500" r="167.323" /> 
<circle cx="55500" cy="22500" r="167.323" /> 
<circle cx="49500" cy="46500" r="167.323" /> 
<circle cx="49500" cy="45500" r="167.323" /> 
<circle cx="58500" cy="22500" r="167.323" /> 
<circle cx="59500" cy="22500" r="167.323" /> 
<circle cx="56500" cy="22500" r="167.323" /> 
<circle cx="57500" cy="22500" r="167.323" /> 
<circle cx="60500" cy="22500" r="167.323" /> 
<circle cx="61500" cy="22500" r="167.323" /> 
<circle cx="49500" cy="42500" r="167.323" /> 
<circle cx="49500" cy="43500" r="167.323" /> 
<circle cx="49500" cy="49500" r="167.323" /> 
<circle cx="49500" cy="48500" r="167.323" /> 
<circle cx="58500" cy="40500" r="167.323" /> 
<circle cx="58500" cy="38500" r="167.323" /> 
<circle cx="51524" cy="35484" r="167.323" /> 
<circle cx="52524" cy="35484" r="167.323" /> 
<circle cx="53524" cy="35484" r="167.323" /> 
<circle cx="54524" cy="35484" r="167.323" /> 
<circle cx="55524" cy="35484" r="167.323" /> 
<circle cx="56524" cy="35484" r="167.323" /> 
<circle cx="57524" cy="35484" r="167.323" /> 
<circle cx="58524" cy="35484" r="167.323" /> 
<circle cx="59524" cy="35484" r="167.323" /> 
<circle cx="60524" cy="35484" r="167.323" /> 
<circle cx="61524" cy="35484" r="167.323" /> 
<circle cx="62524" cy="35484" r="167.323" /> 
<circle cx="63524" cy="35484" r="167.323" /> 
<circle cx="50524" cy="35484" r="167.323" /> 
<circle cx="63524" cy="32484" r="167.323" /> 
<circle cx="62524" cy="32484" r="167.323" /> 
<circle cx="61524" cy="32484" r="167.323" /> 
<circle cx="60524" cy="32484" r="167.323" /> 
<circle cx="59524" cy="32484" r="167.323" /> 
<circle cx="58524" cy="32484" r="167.323" /> 
<circle cx="57524" cy="32484" r="167.323" /> 
<circle cx="56524" cy="32484" r="167.323" /> 
<circle cx="55524" cy="32484" r="167.323" /> 
<circle cx="54524" cy="32484" r="167.323" /> 
<circle cx="53524" cy="32484" r="167.323" /> 
<circle cx="52524" cy="32484" r="167.323" /> 
<circle cx="51524" cy="32484" r="167.323" /> 
<circle cx="50524" cy="32484" r="167.323" /> 
<circle cx="49500" cy="37500" r="167.323" /> 
<circle cx="49500" cy="34500" r="167.323" /> 
<circle cx="56500" cy="45500" r="167.323" /> 
<circle cx="59500" cy="45500" r="167.323" /> 
<circle cx="55500" cy="44500" r="167.323" /> 
<circle cx="58500" cy="44500" r="167.323" /> 
<circle cx="48500" cy="37500" r="167.323" /> 
<circle cx="48500" cy="35500" r="167.323" /> 
<circle cx="57500" cy="28500" r="167.323" /> 
<circle cx="57500" cy="26500" r="167.323" /> 
<circle cx="57200" cy="42300" r="167.323" /> 
<circle cx="59200" cy="42300" r="167.323" /> 
<circle cx="57200" cy="43400" r="167.323" /> 
<circle cx="59200" cy="43400" r="167.323" /> 
<circle cx="56500" cy="40500" r="167.323" /> 
<circle cx="56500" cy="38500" r="167.323" /> 
<circle cx="56500" cy="29500" r="167.323" /> 
<circle cx="58500" cy="29500" r="167.323" /> 
<circle cx="57000" cy="49650" r="167.323" /> 
<circle cx="56000" cy="49650" r="167.323" /> 
<circle cx="56000" cy="50437" r="167.323" /> 
<circle cx="57000" cy="50437" r="167.323" /> 
<circle cx="58862" cy="51500" r="423.228" /> 
<circle cx="54138" cy="51500" r="423.228" /> 
<circle cx="63500" cy="22500" r="167.323" /> 
<circle cx="63500" cy="23500" r="167.323" /> 
<circle cx="63500" cy="24500" r="167.323" /> 
<circle cx="63500" cy="25500" r="167.323" /> 
<circle cx="55500" cy="27500" r="167.323" /> 
<circle cx="56500" cy="27500" r="167.323" /> 
<circle cx="62500" cy="46000" r="167.323" /> 
<circle cx="62500" cy="43000" r="167.323" /> 
<circle cx="53500" cy="44000" r="167.323" /> 
<circle cx="53500" cy="47000" r="167.323" /> 
<circle cx="52500" cy="48500" r="167.323" /> 
<circle cx="52500" cy="49500" r="167.323" /> 
</g> 
</svg>
