<?xml version="1.0" standalone="no"?>
 <!DOCTYPE svg PUBLIC "-//W3C//DTD SVG 1.1//EN" 
 "http://www.w3.org/Graphics/SVG/1.1/DTD/svg11.dtd"> 
<svg xmlns="http://www.w3.org/2000/svg" version="1.1" 
    width="29.7002cm" height="21.0007cm" viewBox="0 0 116930 82680 ">
<title>SVG Picture created as ntaduino-F_SilkS.svg date 2014/07/24 11:36:41 </title>
  <desc>Picture generated by PCBNEW </desc>
<g style="fill:#000000; fill-opacity:1;stroke:#000000; stroke-opacity:1;
stroke-linecap:round; stroke-linejoin:round; "
 transform="translate(0 0) scale(1 1)">
</g>
<g style="fill:#000000; fill-opacity:0.0; 
stroke:#000000; stroke-width:150; stroke-opacity:1; 
stroke-linecap:round; stroke-linejoin:round;">
<circle cx="63484.3" cy="53484.3" r="0.655906" /> 
<path d="M63483 53484
L63485 53484
" />
<path d="M63484 53483
L63484 53485
" />
</g>
<g style="fill:#000000; fill-opacity:0.0; 
stroke:#000000; stroke-width:295; stroke-opacity:1; 
stroke-linecap:round; stroke-linejoin:round;">
<path d="M66490 36575
L66546 36631
L66602 36744
L66602 37025
L66546 37137
L66490 37194
L66378 37250
L66265 37250
L66096 37194
L65421 36519
L65421 37250
" />
<path d="M66602 37981
L66602 38093
L66546 38206
L66490 38262
L66378 38318
L66153 38375
L65871 38375
L65646 38318
L65534 38262
L65478 38206
L65421 38093
L65421 37981
L65478 37868
L65534 37812
L65646 37756
L65871 37700
L66153 37700
L66378 37756
L66490 37812
L66546 37868
L66602 37981
" />
<path d="M65421 39499
L65421 38824
" />
<path d="M65421 39162
L66602 39162
L66434 39049
L66321 38937
L66265 38824
" />
<path d="M66209 40512
L65421 40512
" />
<path d="M66659 40230
L65815 39949
L65815 40680
" />
</g>
<g style="fill:#000000; fill-opacity:0.0; 
stroke:#000000; stroke-width:315; stroke-opacity:1; 
stroke-linecap:round; stroke-linejoin:round;">
<path d="M67500 20500
L46500 20500
" />
<path d="M67500 55500
L67500 20500
" />
<path d="M46500 55500
L46500 20500
" />
<path d="M46500 55500
L67500 55500
" />
</g>
<g style="fill:#000000; fill-opacity:0.0; 
stroke:#000000; stroke-width:295; stroke-opacity:1; 
stroke-linecap:round; stroke-linejoin:round;">
<path d="M47132 25578
L47132 24003
L47525 25128
L47919 24003
L47919 25578
" />
<path d="M48425 25128
L48988 25128
" />
<path d="M48313 25578
L48706 24003
L49100 25578
" />
<path d="M49494 25578
L49494 24003
" />
<path d="M50169 25578
L49662 24678
" />
<path d="M50169 24003
L49494 24903
" />
<path d="M50675 24753
L51068 24753
" />
<path d="M51237 25578
L50675 25578
L50675 24003
L51237 24003
" />
<path d="M52418 25578
L52024 24828
" />
<path d="M51743 25578
L51743 24003
L52193 24003
L52306 24078
L52362 24153
L52418 24303
L52418 24528
L52362 24678
L52306 24753
L52193 24828
L51743 24828
" />
<path d="M52868 25503
L53037 25578
L53318 25578
L53430 25503
L53487 25428
L53543 25278
L53543 25128
L53487 24978
L53430 24903
L53318 24828
L53093 24753
L52980 24678
L52924 24603
L52868 24453
L52868 24303
L52924 24153
L52980 24078
L53093 24003
L53374 24003
L53543 24078
" />
<path d="M54049 25578
L54049 24003
L54499 24003
L54611 24078
L54668 24153
L54724 24303
L54724 24528
L54668 24678
L54611 24753
L54499 24828
L54049 24828
" />
<path d="M55174 25128
L55736 25128
" />
<path d="M55061 25578
L55455 24003
L55849 25578
" />
<path d="M56917 25428
L56861 25503
L56692 25578
L56580 25578
L56411 25503
L56298 25353
L56242 25203
L56186 24903
L56186 24678
L56242 24378
L56298 24228
L56411 24078
L56580 24003
L56692 24003
L56861 24078
L56917 24153
" />
<path d="M57423 24753
L57817 24753
" />
<path d="M57986 25578
L57423 25578
L57423 24003
L57986 24003
" />
<path d="M58492 25428
L58548 25503
L58492 25578
L58436 25503
L58492 25428
L58492 25578
" />
<path d="M59617 25578
L59054 25578
L59054 24003
" />
<path d="M59841 24003
L60516 24003
" />
<path d="M60179 25578
L60179 24003
" />
</g>
<g style="fill:#000000; fill-opacity:0.0; 
stroke:#000000; stroke-width:120; stroke-opacity:1; 
stroke-linecap:round; stroke-linejoin:round;">
<path d="M50000 36000
L64000 36000
" />
<path d="M64000 36000
L64000 37000
" />
<path d="M64000 37000
L50000 37000
" />
<path d="M50000 37000
L50000 36000
" />
<path d="M64000 32000
L50000 32000
" />
<path d="M50000 32000
L50000 31000
" />
<path d="M50000 31000
L64000 31000
" />
<path d="M64000 31000
L64000 32000
" />
<path d="M59500 29500
L59500 29300
" />
<path d="M59500 26500
L59500 26700
" />
<path d="M59500 26700
L59100 26700
" />
<path d="M59100 26700
L59100 29300
" />
<path d="M59100 29300
L59900 29300
" />
<path d="M59900 29300
L59900 26700
" />
<path d="M59900 26700
L59500 26700
" />
<path d="M59300 29300
L59100 29100
" />
<path d="M54500 38500
L54500 38700
" />
<path d="M54500 41500
L54500 41300
" />
<path d="M54500 41300
L54900 41300
" />
<path d="M54900 41300
L54900 38700
" />
<path d="M54900 38700
L54100 38700
" />
<path d="M54100 38700
L54100 41300
" />
<path d="M54100 41300
L54500 41300
" />
<path d="M54700 38700
L54900 38900
" />
<path d="M49500 38500
L49500 38700
" />
<path d="M49500 41500
L49500 41300
" />
<path d="M49500 41300
L49900 41300
" />
<path d="M49900 41300
L49900 38700
" />
<path d="M49900 38700
L49100 38700
" />
<path d="M49100 38700
L49100 41300
" />
<path d="M49100 41300
L49500 41300
" />
<path d="M49700 38700
L49900 38900
" />
<path d="M54500 45500
L54500 45300
" />
<path d="M54500 42500
L54500 42700
" />
<path d="M54500 42700
L54100 42700
" />
<path d="M54100 42700
L54100 45300
" />
<path d="M54100 45300
L54900 45300
" />
<path d="M54900 45300
L54900 42700
" />
<path d="M54900 42700
L54500 42700
" />
<path d="M54300 45300
L54100 45100
" />
<path d="M58500 25500
L58500 25700
" />
<path d="M58500 28500
L58500 28300
" />
<path d="M58500 28300
L58900 28300
" />
<path d="M58900 28300
L58900 25700
" />
<path d="M58900 25700
L58100 25700
" />
<path d="M58100 25700
L58100 28300
" />
<path d="M58100 28300
L58500 28300
" />
<path d="M58700 25700
L58900 25900
" />
<path d="M61500 29500
L61500 29300
" />
<path d="M61500 26500
L61500 26700
" />
<path d="M61500 26700
L61100 26700
" />
<path d="M61100 26700
L61100 29300
" />
<path d="M61100 29300
L61900 29300
" />
<path d="M61900 29300
L61900 26700
" />
<path d="M61900 26700
L61500 26700
" />
<path d="M61300 29300
L61100 29100
" />
<path d="M51500 29500
L51500 29300
" />
<path d="M51500 26500
L51500 26700
" />
<path d="M51500 26700
L51100 26700
" />
<path d="M51100 26700
L51100 29300
" />
<path d="M51100 29300
L51900 29300
" />
<path d="M51900 29300
L51900 26700
" />
<path d="M51900 26700
L51500 26700
" />
<path d="M51300 29300
L51100 29100
" />
<path d="M62500 41500
L62500 41300
" />
<path d="M62500 38500
L62500 38700
" />
<path d="M62500 38700
L62100 38700
" />
<path d="M62100 38700
L62100 41300
" />
<path d="M62100 41300
L62900 41300
" />
<path d="M62900 41300
L62900 38700
" />
<path d="M62900 38700
L62500 38700
" />
<path d="M62300 41300
L62100 41100
" />
<path d="M53500 41500
L53500 41300
" />
<path d="M53500 38500
L53500 38700
" />
<path d="M53500 38700
L53100 38700
" />
<path d="M53100 38700
L53100 41300
" />
<path d="M53100 41300
L53900 41300
" />
<path d="M53900 41300
L53900 38700
" />
<path d="M53900 38700
L53500 38700
" />
<path d="M53300 41300
L53100 41100
" />
<path d="M56500 46500
L56700 46500
" />
<path d="M59500 46500
L59300 46500
" />
<path d="M59300 46500
L59300 46100
" />
<path d="M59300 46100
L56700 46100
" />
<path d="M56700 46100
L56700 46900
" />
<path d="M56700 46900
L59300 46900
" />
<path d="M59300 46900
L59300 46500
" />
<path d="M56700 46300
L56900 46100
" />
<path d="M50500 38500
L50500 38700
" />
<path d="M50500 41500
L50500 41300
" />
<path d="M50500 41300
L50900 41300
" />
<path d="M50900 41300
L50900 38700
" />
<path d="M50900 38700
L50100 38700
" />
<path d="M50100 38700
L50100 41300
" />
<path d="M50100 41300
L50500 41300
" />
<path d="M50700 38700
L50900 38900
" />
<path d="M61500 38500
L61500 38700
" />
<path d="M61500 41500
L61500 41300
" />
<path d="M61500 41300
L61900 41300
" />
<path d="M61900 41300
L61900 38700
" />
<path d="M61900 38700
L61100 38700
" />
<path d="M61100 38700
L61100 41300
" />
<path d="M61100 41300
L61500 41300
" />
<path d="M61700 38700
L61900 38900
" />
<path d="M63500 38500
L63500 38700
" />
<path d="M63500 41500
L63500 41300
" />
<path d="M63500 41300
L63900 41300
" />
<path d="M63900 41300
L63900 38700
" />
<path d="M63900 38700
L63100 38700
" />
<path d="M63100 38700
L63100 41300
" />
<path d="M63100 41300
L63500 41300
" />
<path d="M63700 38700
L63900 38900
" />
<path d="M63500 29500
L63500 29300
" />
<path d="M63500 26500
L63500 26700
" />
<path d="M63500 26700
L63100 26700
" />
<path d="M63100 26700
L63100 29300
" />
<path d="M63100 29300
L63900 29300
" />
<path d="M63900 29300
L63900 26700
" />
<path d="M63900 26700
L63500 26700
" />
<path d="M63300 29300
L63100 29100
" />
<path d="M62500 29500
L62500 29300
" />
<path d="M62500 26500
L62500 26700
" />
<path d="M62500 26700
L62100 26700
" />
<path d="M62100 26700
L62100 29300
" />
<path d="M62100 29300
L62900 29300
" />
<path d="M62900 29300
L62900 26700
" />
<path d="M62900 26700
L62500 26700
" />
<path d="M62300 29300
L62100 29100
" />
<path d="M52500 38500
L52500 38700
" />
<path d="M52500 41500
L52500 41300
" />
<path d="M52500 41300
L52900 41300
" />
<path d="M52900 41300
L52900 38700
" />
<path d="M52900 38700
L52100 38700
" />
<path d="M52100 38700
L52100 41300
" />
<path d="M52100 41300
L52500 41300
" />
<path d="M52700 38700
L52900 38900
" />
<path d="M51500 38500
L51500 38700
" />
<path d="M51500 41500
L51500 41300
" />
<path d="M51500 41300
L51900 41300
" />
<path d="M51900 41300
L51900 38700
" />
<path d="M51900 38700
L51100 38700
" />
<path d="M51100 38700
L51100 41300
" />
<path d="M51100 41300
L51500 41300
" />
<path d="M51700 38700
L51900 38900
" />
<path d="M60500 29500
L60500 29300
" />
<path d="M60500 26500
L60500 26700
" />
<path d="M60500 26700
L60100 26700
" />
<path d="M60100 26700
L60100 29300
" />
<path d="M60100 29300
L60900 29300
" />
<path d="M60900 29300
L60900 26700
" />
<path d="M60900 26700
L60500 26700
" />
<path d="M60300 29300
L60100 29100
" />
<path d="M54500 29500
L54500 29300
" />
<path d="M54500 26500
L54500 26700
" />
<path d="M54500 26700
L54100 26700
" />
<path d="M54100 26700
L54100 29300
" />
<path d="M54100 29300
L54900 29300
" />
<path d="M54900 29300
L54900 26700
" />
<path d="M54900 26700
L54500 26700
" />
<path d="M54300 29300
L54100 29100
" />
<path d="M53500 29500
L53500 29300
" />
<path d="M53500 26500
L53500 26700
" />
<path d="M53500 26700
L53100 26700
" />
<path d="M53100 26700
L53100 29300
" />
<path d="M53100 29300
L53900 29300
" />
<path d="M53900 29300
L53900 26700
" />
<path d="M53900 26700
L53500 26700
" />
<path d="M53300 29300
L53100 29100
" />
<path d="M52500 29500
L52500 29300
" />
<path d="M52500 26500
L52500 26700
" />
<path d="M52500 26700
L52100 26700
" />
<path d="M52100 26700
L52100 29300
" />
<path d="M52100 29300
L52900 29300
" />
<path d="M52900 29300
L52900 26700
" />
<path d="M52900 26700
L52500 26700
" />
<path d="M52300 29300
L52100 29100
" />
</g>
<g style="fill:#000000; fill-opacity:0.0; 
stroke:#000000; stroke-width:150; stroke-opacity:1; 
stroke-linecap:round; stroke-linejoin:round;">
<circle cx="62500" cy="52500" r="2520.39" /> 
<path d="M63524 54803
L61476 54803
" />
<circle cx="62500" cy="48500" r="2520.39" /> 
<path d="M63524 50803
L61476 50803
" />
<circle cx="51500" cy="52500" r="2520.39" /> 
<path d="M53803 51476
L53803 53524
" />
</g>
<g style="fill:#000000; fill-opacity:0.0; 
stroke:#000000; stroke-width:100; stroke-opacity:1; 
stroke-linecap:round; stroke-linejoin:round;">
<path d="M51720 23000
L51720 22000
" />
</g>
<g style="fill:#000000; fill-opacity:0.0; 
stroke:#000000; stroke-width:60; stroke-opacity:1; 
stroke-linecap:round; stroke-linejoin:round;">
<path d="M50639 22115.9 A600 600 0.0 0 0 50500 22500 " />
<path d="M50500.7 22500 A599.256 599.256 0.0 0 0 50651.9 22897.9 " />
<path d="M51699.3 22500 A599.27 599.27 0.0 0 0 51555 22110 " />
<path d="M51561 22884.1 A600 600 0.0 0 0 51700 22500 " />
<path d="M51587.9 22150.7 A600 600 0.0 0 0 51100 21900 " />
<path d="M51100 21900 A600 600 0.0 0 0 50620.2 22139.7 " />
<path d="M51100 23099.3 A599.294 599.294 0.0 0 0 51572.9 22868.1 " />
<path d="M50626.5 22868.6 A600 600 0.0 0 0 51100 23100 " />
<path d="M51100 22250 A250 250 0.0 0 0 50850 22500 " />
<path d="M51100 22100 A400 400 0.0 0 0 50700 22500 " />
<path d="M51100 22750 A250 250 0.0 0 0 51350 22500 " />
<path d="M51100 22900 A400 400 0.0 0 0 51500 22500 " />
</g>
<g style="fill:#000000; fill-opacity:0.0; 
stroke:#000000; stroke-width:100; stroke-opacity:1; 
stroke-linecap:round; stroke-linejoin:round;">
<path d="M51713.7 21986.8 A800 800 0.0 0 0 51100 21700 " />
<path d="M51100 21701 A799 799 0.0 0 0 50395.2 22123.7 " />
<path d="M51101.4 23299 A798.972 798.972 0.0 0 0 51710.3 23015.7 " />
<path d="M50405.8 22897.6 A800 800 0.0 0 0 51100 23300 " />
<path d="M50395.6 22120.7 A800 800 0.0 0 0 50300 22500 " />
<path d="M50300.4 22500 A799.576 799.576 0.0 0 0 50419 22919 " />
<path d="M53720 23000
L53720 22000
" />
</g>
<g style="fill:#000000; fill-opacity:0.0; 
stroke:#000000; stroke-width:60; stroke-opacity:1; 
stroke-linecap:round; stroke-linejoin:round;">
<path d="M52639 22115.9 A600 600 0.0 0 0 52500 22500 " />
<path d="M52500.7 22500 A599.256 599.256 0.0 0 0 52651.9 22897.9 " />
<path d="M53699.3 22500 A599.27 599.27 0.0 0 0 53555 22110 " />
<path d="M53561 22884.1 A600 600 0.0 0 0 53700 22500 " />
<path d="M53587.9 22150.7 A600 600 0.0 0 0 53100 21900 " />
<path d="M53100 21900 A600 600 0.0 0 0 52620.2 22139.7 " />
<path d="M53100 23099.3 A599.294 599.294 0.0 0 0 53572.9 22868.1 " />
<path d="M52626.5 22868.6 A600 600 0.0 0 0 53100 23100 " />
<path d="M53100 22250 A250 250 0.0 0 0 52850 22500 " />
<path d="M53100 22100 A400 400 0.0 0 0 52700 22500 " />
<path d="M53100 22750 A250 250 0.0 0 0 53350 22500 " />
<path d="M53100 22900 A400 400 0.0 0 0 53500 22500 " />
</g>
<g style="fill:#000000; fill-opacity:0.0; 
stroke:#000000; stroke-width:100; stroke-opacity:1; 
stroke-linecap:round; stroke-linejoin:round;">
<path d="M53713.7 21986.8 A800 800 0.0 0 0 53100 21700 " />
<path d="M53100 21701 A799 799 0.0 0 0 52395.2 22123.7 " />
<path d="M53101.4 23299 A798.972 798.972 0.0 0 0 53710.3 23015.7 " />
<path d="M52405.8 22897.6 A800 800 0.0 0 0 53100 23300 " />
<path d="M52395.6 22120.7 A800 800 0.0 0 0 52300 22500 " />
<path d="M52300.4 22500 A799.576 799.576 0.0 0 0 52419 22919 " />
<path d="M55720 23000
L55720 22000
" />
</g>
<g style="fill:#000000; fill-opacity:0.0; 
stroke:#000000; stroke-width:60; stroke-opacity:1; 
stroke-linecap:round; stroke-linejoin:round;">
<path d="M54639 22115.9 A600 600 0.0 0 0 54500 22500 " />
<path d="M54500.7 22500 A599.256 599.256 0.0 0 0 54651.9 22897.9 " />
<path d="M55699.3 22500 A599.27 599.27 0.0 0 0 55555 22110 " />
<path d="M55561 22884.1 A600 600 0.0 0 0 55700 22500 " />
<path d="M55587.9 22150.7 A600 600 0.0 0 0 55100 21900 " />
<path d="M55100 21900 A600 600 0.0 0 0 54620.2 22139.7 " />
<path d="M55100 23099.3 A599.294 599.294 0.0 0 0 55572.9 22868.1 " />
<path d="M54626.5 22868.6 A600 600 0.0 0 0 55100 23100 " />
<path d="M55100 22250 A250 250 0.0 0 0 54850 22500 " />
<path d="M55100 22100 A400 400 0.0 0 0 54700 22500 " />
<path d="M55100 22750 A250 250 0.0 0 0 55350 22500 " />
<path d="M55100 22900 A400 400 0.0 0 0 55500 22500 " />
</g>
<g style="fill:#000000; fill-opacity:0.0; 
stroke:#000000; stroke-width:100; stroke-opacity:1; 
stroke-linecap:round; stroke-linejoin:round;">
<path d="M55713.7 21986.8 A800 800 0.0 0 0 55100 21700 " />
<path d="M55100 21701 A799 799 0.0 0 0 54395.2 22123.7 " />
<path d="M55101.4 23299 A798.972 798.972 0.0 0 0 55710.3 23015.7 " />
<path d="M54405.8 22897.6 A800 800 0.0 0 0 55100 23300 " />
<path d="M54395.6 22120.7 A800 800 0.0 0 0 54300 22500 " />
<path d="M54300.4 22500 A799.576 799.576 0.0 0 0 54419 22919 " />
<path d="M50000 45280
L49000 45280
" />
</g>
<g style="fill:#000000; fill-opacity:0.0; 
stroke:#000000; stroke-width:60; stroke-opacity:1; 
stroke-linecap:round; stroke-linejoin:round;">
<path d="M49115.9 46361 A600 600 0.0 0 0 49500 46500 " />
<path d="M49500 46499.3 A599.256 599.256 0.0 0 0 49897.9 46348.1 " />
<path d="M49500 45300.7 A599.27 599.27 0.0 0 0 49110 45445 " />
<path d="M49884.1 45439 A600 600 0.0 0 0 49500 45300 " />
<path d="M49150.7 45412.1 A600 600 0.0 0 0 48900 45900 " />
<path d="M48900 45900 A600 600 0.0 0 0 49139.7 46379.8 " />
<path d="M50099.3 45900 A599.294 599.294 0.0 0 0 49868.1 45427.1 " />
<path d="M49868.6 46373.5 A600 600 0.0 0 0 50100 45900 " />
<path d="M49250 45900 A250 250 0.0 0 0 49500 46150 " />
<path d="M49100 45900 A400 400 0.0 0 0 49500 46300 " />
<path d="M49750 45900 A250 250 0.0 0 0 49500 45650 " />
<path d="M49900 45900 A400 400 0.0 0 0 49500 45500 " />
</g>
<g style="fill:#000000; fill-opacity:0.0; 
stroke:#000000; stroke-width:100; stroke-opacity:1; 
stroke-linecap:round; stroke-linejoin:round;">
<path d="M48986.8 45286.3 A800 800 0.0 0 0 48700 45900 " />
<path d="M48701 45900 A799 799 0.0 0 0 49123.7 46604.8 " />
<path d="M50299 45898.6 A798.972 798.972 0.0 0 0 50015.7 45289.7 " />
<path d="M49897.6 46594.2 A800 800 0.0 0 0 50300 45900 " />
<path d="M49120.7 46604.4 A800 800 0.0 0 0 49500 46700 " />
<path d="M49500 46699.6 A799.576 799.576 0.0 0 0 49919 46581 " />
<path d="M59720 23000
L59720 22000
" />
</g>
<g style="fill:#000000; fill-opacity:0.0; 
stroke:#000000; stroke-width:60; stroke-opacity:1; 
stroke-linecap:round; stroke-linejoin:round;">
<path d="M58639 22115.9 A600 600 0.0 0 0 58500 22500 " />
<path d="M58500.7 22500 A599.256 599.256 0.0 0 0 58651.9 22897.9 " />
<path d="M59699.3 22500 A599.27 599.27 0.0 0 0 59555 22110 " />
<path d="M59561 22884.1 A600 600 0.0 0 0 59700 22500 " />
<path d="M59587.9 22150.7 A600 600 0.0 0 0 59100 21900 " />
<path d="M59100 21900 A600 600 0.0 0 0 58620.2 22139.7 " />
<path d="M59100 23099.3 A599.294 599.294 0.0 0 0 59572.9 22868.1 " />
<path d="M58626.5 22868.6 A600 600 0.0 0 0 59100 23100 " />
<path d="M59100 22250 A250 250 0.0 0 0 58850 22500 " />
<path d="M59100 22100 A400 400 0.0 0 0 58700 22500 " />
<path d="M59100 22750 A250 250 0.0 0 0 59350 22500 " />
<path d="M59100 22900 A400 400 0.0 0 0 59500 22500 " />
</g>
<g style="fill:#000000; fill-opacity:0.0; 
stroke:#000000; stroke-width:100; stroke-opacity:1; 
stroke-linecap:round; stroke-linejoin:round;">
<path d="M59713.7 21986.8 A800 800 0.0 0 0 59100 21700 " />
<path d="M59100 21701 A799 799 0.0 0 0 58395.2 22123.7 " />
<path d="M59101.4 23299 A798.972 798.972 0.0 0 0 59710.3 23015.7 " />
<path d="M58405.8 22897.6 A800 800 0.0 0 0 59100 23300 " />
<path d="M58395.6 22120.7 A800 800 0.0 0 0 58300 22500 " />
<path d="M58300.4 22500 A799.576 799.576 0.0 0 0 58419 22919 " />
<path d="M57720 23000
L57720 22000
" />
</g>
<g style="fill:#000000; fill-opacity:0.0; 
stroke:#000000; stroke-width:60; stroke-opacity:1; 
stroke-linecap:round; stroke-linejoin:round;">
<path d="M56639 22115.9 A600 600 0.0 0 0 56500 22500 " />
<path d="M56500.7 22500 A599.256 599.256 0.0 0 0 56651.9 22897.9 " />
<path d="M57699.3 22500 A599.27 599.27 0.0 0 0 57555 22110 " />
<path d="M57561 22884.1 A600 600 0.0 0 0 57700 22500 " />
<path d="M57587.9 22150.7 A600 600 0.0 0 0 57100 21900 " />
<path d="M57100 21900 A600 600 0.0 0 0 56620.2 22139.7 " />
<path d="M57100 23099.3 A599.294 599.294 0.0 0 0 57572.9 22868.1 " />
<path d="M56626.5 22868.6 A600 600 0.0 0 0 57100 23100 " />
<path d="M57100 22250 A250 250 0.0 0 0 56850 22500 " />
<path d="M57100 22100 A400 400 0.0 0 0 56700 22500 " />
<path d="M57100 22750 A250 250 0.0 0 0 57350 22500 " />
<path d="M57100 22900 A400 400 0.0 0 0 57500 22500 " />
</g>
<g style="fill:#000000; fill-opacity:0.0; 
stroke:#000000; stroke-width:100; stroke-opacity:1; 
stroke-linecap:round; stroke-linejoin:round;">
<path d="M57713.7 21986.8 A800 800 0.0 0 0 57100 21700 " />
<path d="M57100 21701 A799 799 0.0 0 0 56395.2 22123.7 " />
<path d="M57101.4 23299 A798.972 798.972 0.0 0 0 57710.3 23015.7 " />
<path d="M56405.8 22897.6 A800 800 0.0 0 0 57100 23300 " />
<path d="M56395.6 22120.7 A800 800 0.0 0 0 56300 22500 " />
<path d="M56300.4 22500 A799.576 799.576 0.0 0 0 56419 22919 " />
<path d="M61720 23000
L61720 22000
" />
</g>
<g style="fill:#000000; fill-opacity:0.0; 
stroke:#000000; stroke-width:60; stroke-opacity:1; 
stroke-linecap:round; stroke-linejoin:round;">
<path d="M60639 22115.9 A600 600 0.0 0 0 60500 22500 " />
<path d="M60500.7 22500 A599.256 599.256 0.0 0 0 60651.9 22897.9 " />
<path d="M61699.3 22500 A599.27 599.27 0.0 0 0 61555 22110 " />
<path d="M61561 22884.1 A600 600 0.0 0 0 61700 22500 " />
<path d="M61587.9 22150.7 A600 600 0.0 0 0 61100 21900 " />
<path d="M61100 21900 A600 600 0.0 0 0 60620.2 22139.7 " />
<path d="M61100 23099.3 A599.294 599.294 0.0 0 0 61572.9 22868.1 " />
<path d="M60626.5 22868.6 A600 600 0.0 0 0 61100 23100 " />
<path d="M61100 22250 A250 250 0.0 0 0 60850 22500 " />
<path d="M61100 22100 A400 400 0.0 0 0 60700 22500 " />
<path d="M61100 22750 A250 250 0.0 0 0 61350 22500 " />
<path d="M61100 22900 A400 400 0.0 0 0 61500 22500 " />
</g>
<g style="fill:#000000; fill-opacity:0.0; 
stroke:#000000; stroke-width:100; stroke-opacity:1; 
stroke-linecap:round; stroke-linejoin:round;">
<path d="M61713.7 21986.8 A800 800 0.0 0 0 61100 21700 " />
<path d="M61100 21701 A799 799 0.0 0 0 60395.2 22123.7 " />
<path d="M61101.4 23299 A798.972 798.972 0.0 0 0 61710.3 23015.7 " />
<path d="M60405.8 22897.6 A800 800 0.0 0 0 61100 23300 " />
<path d="M60395.6 22120.7 A800 800 0.0 0 0 60300 22500 " />
<path d="M60300.4 22500 A799.576 799.576 0.0 0 0 60419 22919 " />
<path d="M49000 43720
L50000 43720
" />
</g>
<g style="fill:#000000; fill-opacity:0.0; 
stroke:#000000; stroke-width:60; stroke-opacity:1; 
stroke-linecap:round; stroke-linejoin:round;">
<path d="M49884.1 42639 A600 600 0.0 0 0 49500 42500 " />
<path d="M49500 42500.7 A599.256 599.256 0.0 0 0 49102.1 42651.9 " />
<path d="M49500 43699.3 A599.27 599.27 0.0 0 0 49890 43555 " />
<path d="M49115.9 43561 A600 600 0.0 0 0 49500 43700 " />
<path d="M49849.3 43587.9 A600 600 0.0 0 0 50100 43100 " />
<path d="M50100 43100 A600 600 0.0 0 0 49860.3 42620.2 " />
<path d="M48900.7 43100 A599.294 599.294 0.0 0 0 49131.9 43572.9 " />
<path d="M49131.4 42626.5 A600 600 0.0 0 0 48900 43100 " />
<path d="M49750 43100 A250 250 0.0 0 0 49500 42850 " />
<path d="M49900 43100 A400 400 0.0 0 0 49500 42700 " />
<path d="M49250 43100 A250 250 0.0 0 0 49500 43350 " />
<path d="M49100 43100 A400 400 0.0 0 0 49500 43500 " />
</g>
<g style="fill:#000000; fill-opacity:0.0; 
stroke:#000000; stroke-width:100; stroke-opacity:1; 
stroke-linecap:round; stroke-linejoin:round;">
<path d="M50013.2 43713.7 A800 800 0.0 0 0 50300 43100 " />
<path d="M50299 43100 A799 799 0.0 0 0 49876.3 42395.2 " />
<path d="M48701 43101.4 A798.972 798.972 0.0 0 0 48984.3 43710.3 " />
<path d="M49102.4 42405.8 A800 800 0.0 0 0 48700 43100 " />
<path d="M49879.3 42395.6 A800 800 0.0 0 0 49500 42300 " />
<path d="M49500 42300.4 A799.576 799.576 0.0 0 0 49081 42419 " />
<path d="M50000 48280
L49000 48280
" />
</g>
<g style="fill:#000000; fill-opacity:0.0; 
stroke:#000000; stroke-width:60; stroke-opacity:1; 
stroke-linecap:round; stroke-linejoin:round;">
<path d="M49115.9 49361 A600 600 0.0 0 0 49500 49500 " />
<path d="M49500 49499.3 A599.256 599.256 0.0 0 0 49897.9 49348.1 " />
<path d="M49500 48300.7 A599.27 599.27 0.0 0 0 49110 48445 " />
<path d="M49884.1 48439 A600 600 0.0 0 0 49500 48300 " />
<path d="M49150.7 48412.1 A600 600 0.0 0 0 48900 48900 " />
<path d="M48900 48900 A600 600 0.0 0 0 49139.7 49379.8 " />
<path d="M50099.3 48900 A599.294 599.294 0.0 0 0 49868.1 48427.1 " />
<path d="M49868.6 49373.5 A600 600 0.0 0 0 50100 48900 " />
<path d="M49250 48900 A250 250 0.0 0 0 49500 49150 " />
<path d="M49100 48900 A400 400 0.0 0 0 49500 49300 " />
<path d="M49750 48900 A250 250 0.0 0 0 49500 48650 " />
<path d="M49900 48900 A400 400 0.0 0 0 49500 48500 " />
</g>
<g style="fill:#000000; fill-opacity:0.0; 
stroke:#000000; stroke-width:100; stroke-opacity:1; 
stroke-linecap:round; stroke-linejoin:round;">
<path d="M48986.8 48286.3 A800 800 0.0 0 0 48700 48900 " />
<path d="M48701 48900 A799 799 0.0 0 0 49123.7 49604.8 " />
<path d="M50299 48898.6 A798.972 798.972 0.0 0 0 50015.7 48289.7 " />
<path d="M49897.6 49594.2 A800 800 0.0 0 0 50300 48900 " />
<path d="M49120.7 49604.4 A800 800 0.0 0 0 49500 49700 " />
<path d="M49500 49699.6 A799.576 799.576 0.0 0 0 49919 49581 " />
</g>
<g style="fill:#000000; fill-opacity:0.0; 
stroke:#000000; stroke-width:125; stroke-opacity:1; 
stroke-linecap:round; stroke-linejoin:round;">
<path d="M59500 40750
L59500 38250
" />
<path d="M57500 40750
L57500 38250
" />
<path d="M58500 37250 A1000 1000 0.0 0 0 57500 38250 " />
<path d="M59500 38250 A1000 1000 0.0 0 0 58500 37250 " />
<path d="M57500 40750 A1000 1000 0.0 0 0 58500 41750 " />
<path d="M58500 41750 A1000 1000 0.0 0 0 59500 40750 " />
</g>
<g style="fill:#000000; fill-opacity:0.0; 
stroke:#000000; stroke-width:150; stroke-opacity:1; 
stroke-linecap:round; stroke-linejoin:round;">
<path d="M49524 32984
L64524 32984
" />
<path d="M64524 32984
L64524 34984
" />
<path d="M64524 34984
L49524 34984
" />
<path d="M49524 34984
L49524 32984
" />
<path d="M49524 33484
L50024 33484
" />
<path d="M50024 33484
L50024 34484
" />
<path d="M50024 34484
L49524 34484
" />
</g>
<g style="fill:#000000; fill-opacity:0.0; 
stroke:#000000; stroke-width:120; stroke-opacity:1; 
stroke-linecap:round; stroke-linejoin:round;">
<path d="M49500 37500
L49500 37200
" />
<path d="M49500 37200
L49900 37200
" />
<path d="M49900 37200
L49900 34800
" />
<path d="M49900 34800
L49500 34800
" />
<path d="M49500 34800
L49500 34500
" />
<path d="M49500 34800
L49100 34800
" />
<path d="M49100 34800
L49100 37200
" />
<path d="M49100 37200
L49500 37200
" />
<path d="M49900 37000
L49100 37000
" />
<path d="M49100 36900
L49900 36900
" />
<path d="M56500 45500
L56800 45500
" />
<path d="M56800 45500
L56800 45900
" />
<path d="M56800 45900
L59200 45900
" />
<path d="M59200 45900
L59200 45500
" />
<path d="M59200 45500
L59500 45500
" />
<path d="M59200 45500
L59200 45100
" />
<path d="M59200 45100
L56800 45100
" />
<path d="M56800 45100
L56800 45500
" />
<path d="M57000 45900
L57000 45100
" />
<path d="M57100 45100
L57100 45900
" />
<path d="M55500 44500
L55800 44500
" />
<path d="M55800 44500
L55800 44900
" />
<path d="M55800 44900
L58200 44900
" />
<path d="M58200 44900
L58200 44500
" />
<path d="M58200 44500
L58500 44500
" />
<path d="M58200 44500
L58200 44100
" />
<path d="M58200 44100
L55800 44100
" />
<path d="M55800 44100
L55800 44500
" />
<path d="M56000 44900
L56000 44100
" />
<path d="M56100 44100
L56100 44900
" />
<path d="M48100 37900
L48100 35100
" />
<path d="M48100 35100
L48900 35100
" />
<path d="M48900 35100
L48900 37900
" />
<path d="M48900 37900
L48100 37900
" />
<path d="M48300 37900
L48100 37700
" />
<path d="M57100 28900
L57100 26100
" />
<path d="M57100 26100
L57900 26100
" />
<path d="M57900 26100
L57900 28900
" />
<path d="M57900 28900
L57100 28900
" />
<path d="M57300 28900
L57100 28700
" />
<path d="M56800 41900
L59600 41900
" />
<path d="M59600 41900
L59600 42700
" />
<path d="M59600 42700
L56800 42700
" />
<path d="M56800 42700
L56800 41900
" />
<path d="M56800 42100
L57000 41900
" />
<path d="M56800 43000
L59600 43000
" />
<path d="M59600 43000
L59600 43800
" />
<path d="M59600 43800
L56800 43800
" />
<path d="M56800 43800
L56800 43000
" />
<path d="M56800 43200
L57000 43000
" />
<path d="M56100 40900
L56100 38100
" />
<path d="M56100 38100
L56900 38100
" />
<path d="M56900 38100
L56900 40900
" />
<path d="M56900 40900
L56100 40900
" />
<path d="M56300 40900
L56100 40700
" />
<path d="M56100 29100
L58900 29100
" />
<path d="M58900 29100
L58900 29900
" />
<path d="M58900 29900
L56100 29900
" />
<path d="M56100 29900
L56100 29100
" />
<path d="M56100 29300
L56300 29100
" />
</g>
<g style="fill:#000000; fill-opacity:0.0; 
stroke:#000000; stroke-width:50; stroke-opacity:1; 
stroke-linecap:round; stroke-linejoin:round;">
<path d="M54100 55550
L58900 55550
" />
<path d="M58900 55550
L58900 48850
" />
<path d="M58900 48850
L54100 48850
" />
<path d="M54100 48850
L54100 55550
" />
</g>
<g style="fill:#000000; fill-opacity:0.0; 
stroke:#000000; stroke-width:80; stroke-opacity:1; 
stroke-linecap:round; stroke-linejoin:round;">
<path d="M62750 25120
L64250 25120
" />
</g>
<g style="fill:#000000; fill-opacity:0.0; 
stroke:#000000; stroke-width:100; stroke-opacity:1; 
stroke-linecap:round; stroke-linejoin:round;">
<path d="M64250.5 25099.6 A1250 1250 0.0 1 0 62749.5 25099.6 " />
</g>
<g style="fill:#000000; fill-opacity:0.0; 
stroke:#000000; stroke-width:150; stroke-opacity:1; 
stroke-linecap:round; stroke-linejoin:round;">
<path d="M55000.3 26999.4 A1118.03 1118.03 0.0 0 0 55499.4 28499.7 " />
<path d="M56500.6 28499.7 A1118.03 1118.03 0.0 0 0 56999.7 26999.4 " />
<path d="M55499.4 26500.3 A1118.03 1118.03 0.0 0 0 55000.3 28000.6 " />
<path d="M56999.7 28000.6 A1118.03 1118.03 0.0 0 0 56500.6 26500.3 " />
<path d="M55500 28500
L56500 28500
" />
<path d="M56500 26500
L55500 26500
" />
</g>
<g style="fill:#000000; fill-opacity:0.0; 
stroke:#000000; stroke-width:30; stroke-opacity:1; 
stroke-linecap:round; stroke-linejoin:round;">
<circle cx="56100" cy="27500" r="707.107" /> 
</g>
<g style="fill:#000000; fill-opacity:0.0; 
stroke:#000000; stroke-width:60; stroke-opacity:1; 
stroke-linecap:round; stroke-linejoin:round;">
<path d="M56100 27050 A450 450 0.0 0 0 55650 27500 " />
<path d="M56100 27950 A450 450 0.0 0 0 56550 27500 " />
<path d="M56100 26850 A650 650 0.0 0 0 55450 27500 " />
<path d="M56100 28150 A650 650 0.0 0 0 56750 27500 " />
<path d="M56100 26650 A850 850 0.0 0 0 55250 27500 " />
<path d="M56100 28350 A850 850 0.0 0 0 56950 27500 " />
</g>
<g style="fill:#000000; fill-opacity:0.0; 
stroke:#000000; stroke-width:120; stroke-opacity:1; 
stroke-linecap:round; stroke-linejoin:round;">
<path d="M53500 44000
L53500 44200
" />
<path d="M53500 47000
L53500 46800
" />
<path d="M53500 46800
L53900 46800
" />
<path d="M53900 46800
L53900 44200
" />
<path d="M53900 44200
L53100 44200
" />
<path d="M53100 44200
L53100 46800
" />
<path d="M53100 46800
L53500 46800
" />
<path d="M53700 44200
L53900 44400
" />
</g>
<g style="fill:#000000; fill-opacity:0.0; 
stroke:#000000; stroke-width:100; stroke-opacity:1; 
stroke-linecap:round; stroke-linejoin:round;">
<path d="M52000 49720
L53000 49720
" />
</g>
<g style="fill:#000000; fill-opacity:0.0; 
stroke:#000000; stroke-width:60; stroke-opacity:1; 
stroke-linecap:round; stroke-linejoin:round;">
<path d="M52884.1 48639 A600 600 0.0 0 0 52500 48500 " />
<path d="M52500 48500.7 A599.256 599.256 0.0 0 0 52102.1 48651.9 " />
<path d="M52500 49699.3 A599.27 599.27 0.0 0 0 52890 49555 " />
<path d="M52115.9 49561 A600 600 0.0 0 0 52500 49700 " />
<path d="M52849.3 49587.9 A600 600 0.0 0 0 53100 49100 " />
<path d="M53100 49100 A600 600 0.0 0 0 52860.3 48620.2 " />
<path d="M51900.7 49100 A599.294 599.294 0.0 0 0 52131.9 49572.9 " />
<path d="M52131.4 48626.5 A600 600 0.0 0 0 51900 49100 " />
<path d="M52750 49100 A250 250 0.0 0 0 52500 48850 " />
<path d="M52900 49100 A400 400 0.0 0 0 52500 48700 " />
<path d="M52250 49100 A250 250 0.0 0 0 52500 49350 " />
<path d="M52100 49100 A400 400 0.0 0 0 52500 49500 " />
</g>
<g style="fill:#000000; fill-opacity:0.0; 
stroke:#000000; stroke-width:100; stroke-opacity:1; 
stroke-linecap:round; stroke-linejoin:round;">
<path d="M53013.2 49713.7 A800 800 0.0 0 0 53300 49100 " />
<path d="M53299 49100 A799 799 0.0 0 0 52876.3 48395.2 " />
<path d="M51701 49101.4 A798.972 798.972 0.0 0 0 51984.3 49710.3 " />
<path d="M52102.4 48405.8 A800 800 0.0 0 0 51700 49100 " />
<path d="M52879.3 48395.6 A800 800 0.0 0 0 52500 48300 " />
<path d="M52500 48300.4 A799.576 799.576 0.0 0 0 52081 48419 " />
</g>
<g style="fill:#000000; fill-opacity:0.0; 
stroke:#000000; stroke-width:150; stroke-opacity:1; 
stroke-linecap:round; stroke-linejoin:round;">
<circle cx="62500" cy="44500" r="2367.45" /> 
<path d="M61559 42992
L61559 43492
" />
<path d="M61803 43236
L61303 43236
" />
</g>
<g style="fill:#000000; fill-opacity:0.0; 
stroke:#000000; stroke-width:107; stroke-opacity:1; 
stroke-linecap:round; stroke-linejoin:round;">
<path d="M52321 36830
L52321 36149
L52484 36149
L52525 36182
L52546 36214
L52566 36279
L52566 36376
L52546 36441
L52525 36474
L52484 36506
L52321 36506
" />
<path d="M52974 36830
L52729 36830
" />
<path d="M52851 36830
L52851 36149
L52811 36247
L52770 36311
L52729 36344
" />
</g>
<g style="fill:#000000; fill-opacity:0.0; 
stroke:#000000; stroke-width:100; stroke-opacity:1; 
stroke-linecap:round; stroke-linejoin:round;">
<path d="M58922 36701
L58903 36730
L58846 36758
L58808 36758
L58751 36730
L58713 36672
L58693 36615
L58674 36501
L58674 36415
L58693 36301
L58713 36244
L58751 36187
L58808 36158
L58846 36158
L58903 36187
L58922 36215
" />
<path d="M59170 36158
L59246 36158
L59284 36187
L59322 36244
L59341 36358
L59341 36558
L59322 36672
L59284 36730
L59246 36758
L59170 36758
L59132 36730
L59093 36672
L59074 36558
L59074 36358
L59093 36244
L59132 36187
L59170 36158
" />
<path d="M59513 36758
L59513 36158
L59741 36758
L59741 36158
" />
<path d="M59932 36758
L59932 36158
L60160 36758
L60160 36158
" />
<path d="M60255 36815
L60560 36815
" />
<path d="M60865 36758
L60636 36758
" />
<path d="M60751 36758
L60751 36158
L60713 36244
L60674 36301
L60636 36330
" />
<path d="M61208 36358
L61208 36758
" />
<path d="M61113 36130
L61017 36558
L61265 36558
" />
</g>
<g style="fill:#000000; fill-opacity:0.0; 
stroke:#000000; stroke-width:107; stroke-opacity:1; 
stroke-linecap:round; stroke-linejoin:round;">
<path d="M52243 31830
L52243 31149
L52406 31149
L52446 31182
L52467 31214
L52487 31279
L52487 31376
L52467 31441
L52446 31474
L52406 31506
L52243 31506
" />
<path d="M52650 31214
L52671 31182
L52711 31149
L52813 31149
L52854 31182
L52874 31214
L52895 31279
L52895 31344
L52874 31441
L52630 31830
L52895 31830
" />
</g>
<g style="fill:#000000; fill-opacity:0.0; 
stroke:#000000; stroke-width:100; stroke-opacity:1; 
stroke-linecap:round; stroke-linejoin:round;">
<path d="M58646 31740
L58627 31769
L58570 31797
L58532 31797
L58475 31769
L58437 31712
L58418 31655
L58399 31540
L58399 31455
L58418 31340
L58437 31283
L58475 31226
L58532 31197
L58570 31197
L58627 31226
L58646 31255
" />
<path d="M58894 31197
L58970 31197
L59008 31226
L59046 31283
L59065 31397
L59065 31597
L59046 31712
L59008 31769
L58970 31797
L58894 31797
L58856 31769
L58818 31712
L58799 31597
L58799 31397
L58818 31283
L58856 31226
L58894 31197
" />
<path d="M59237 31797
L59237 31197
L59465 31797
L59465 31197
" />
<path d="M59656 31797
L59656 31197
L59885 31797
L59885 31197
" />
<path d="M59980 31855
L60285 31855
" />
<path d="M60589 31797
L60361 31797
" />
<path d="M60475 31797
L60475 31197
L60437 31283
L60399 31340
L60361 31369
" />
<path d="M60932 31397
L60932 31797
" />
<path d="M60837 31169
L60742 31597
L60989 31597
" />
</g>
<g style="fill:#000000; fill-opacity:0.0; 
stroke:#000000; stroke-width:80; stroke-opacity:1; 
stroke-linecap:round; stroke-linejoin:round;">
<path d="M59769 30181
L59507 30348
" />
<path d="M59769 30467
L59219 30467
L59219 30276
L59246 30229
L59272 30205
L59324 30181
L59403 30181
L59455 30205
L59481 30229
L59507 30276
L59507 30467
" />
<path d="M59219 29753
L59219 29848
L59246 29896
L59272 29919
L59350 29967
L59455 29991
L59665 29991
L59717 29967
L59743 29943
L59769 29896
L59769 29800
L59743 29753
L59717 29729
L59665 29705
L59534 29705
L59481 29729
L59455 29753
L59429 29800
L59429 29896
L59455 29943
L59481 29967
L59534 29991
" />
<path d="M59272 28591
L59246 28567
L59219 28520
L59219 28401
L59246 28353
L59272 28329
L59324 28305
L59377 28305
L59455 28329
L59769 28615
L59769 28305
" />
<path d="M59272 28115
L59246 28091
L59219 28043
L59219 27924
L59246 27877
L59272 27853
L59324 27829
L59377 27829
L59455 27853
L59769 28139
L59769 27829
" />
<path d="M59219 27520
L59219 27472
L59246 27424
L59272 27401
L59324 27377
L59429 27353
L59560 27353
L59665 27377
L59717 27401
L59743 27424
L59769 27472
L59769 27520
L59743 27567
L59717 27591
L59665 27615
L59560 27639
L59429 27639
L59324 27615
L59272 27591
L59246 27567
L59219 27520
" />
<path d="M54710 38095
L54448 38261
" />
<path d="M54710 38380
L54160 38380
L54160 38190
L54186 38142
L54213 38118
L54265 38095
L54344 38095
L54396 38118
L54422 38142
L54448 38190
L54448 38380
" />
<path d="M54710 37618
L54710 37904
" />
<path d="M54710 37761
L54160 37761
L54239 37809
L54291 37857
L54317 37904
" />
<path d="M54272 40630
L54246 40607
L54219 40559
L54219 40440
L54246 40392
L54272 40369
L54324 40345
L54377 40345
L54455 40369
L54769 40654
L54769 40345
" />
<path d="M54272 40154
L54246 40130
L54219 40083
L54219 39964
L54246 39916
L54272 39892
L54324 39869
L54377 39869
L54455 39892
L54769 40178
L54769 39869
" />
<path d="M54769 39654
L54219 39654
" />
<path d="M54769 39369
L54455 39583
" />
<path d="M54219 39369
L54534 39654
" />
<path d="M48923 40083
L48661 40250
" />
<path d="M48923 40369
L48373 40369
L48373 40178
L48399 40130
L48425 40107
L48478 40083
L48556 40083
L48609 40107
L48635 40130
L48661 40178
L48661 40369
" />
<path d="M48425 39892
L48399 39869
L48373 39821
L48373 39702
L48399 39654
L48425 39630
L48478 39607
L48530 39607
L48609 39630
L48923 39916
L48923 39607
" />
<path d="M49769 40345
L49769 40630
" />
<path d="M49769 40488
L49219 40488
L49298 40535
L49350 40583
L49377 40630
" />
<path d="M49219 40035
L49219 39988
L49246 39940
L49272 39916
L49324 39892
L49429 39869
L49560 39869
L49665 39892
L49717 39916
L49743 39940
L49769 39988
L49769 40035
L49743 40083
L49717 40107
L49665 40130
L49560 40154
L49429 40154
L49324 40130
L49272 40107
L49246 40083
L49219 40035
" />
<path d="M49769 39654
L49219 39654
" />
<path d="M49769 39369
L49455 39583
" />
<path d="M49219 39369
L49534 39654
" />
<path d="M54750 46106
L54488 46273
" />
<path d="M54750 46392
L54200 46392
L54200 46202
L54226 46154
L54252 46130
L54304 46106
L54383 46106
L54435 46130
L54462 46154
L54488 46202
L54488 46392
" />
<path d="M54200 45940
L54200 45630
L54409 45797
L54409 45726
L54435 45678
L54462 45654
L54514 45630
L54645 45630
L54697 45654
L54723 45678
L54750 45726
L54750 45868
L54723 45916
L54697 45940
" />
<path d="M54272 44627
L54246 44603
L54219 44555
L54219 44436
L54246 44388
L54272 44365
L54324 44341
L54377 44341
L54455 44365
L54769 44650
L54769 44341
" />
<path d="M54769 44127
L54219 44127
" />
<path d="M54769 43841
L54455 44055
" />
<path d="M54219 43841
L54534 44127
" />
<path d="M54272 43650
L54246 43627
L54219 43579
L54219 43460
L54246 43412
L54272 43388
L54324 43365
L54377 43365
L54455 43388
L54769 43674
L54769 43365
" />
<path d="M58726 24807
L58464 24974
" />
<path d="M58726 25093
L58176 25093
L58176 24902
L58202 24855
L58228 24831
L58281 24807
L58359 24807
L58412 24831
L58438 24855
L58464 24902
L58464 25093
" />
<path d="M58359 24379
L58726 24379
" />
<path d="M58150 24498
L58543 24617
L58543 24307
" />
<path d="M58765 27591
L58765 27876
" />
<path d="M58765 27734
L58215 27734
L58294 27781
L58346 27829
L58373 27876
" />
<path d="M58215 27281
L58215 27234
L58242 27186
L58268 27162
L58320 27138
L58425 27115
L58556 27115
L58661 27138
L58713 27162
L58739 27186
L58765 27234
L58765 27281
L58739 27329
L58713 27353
L58661 27376
L58556 27400
L58425 27400
L58320 27376
L58268 27353
L58242 27329
L58215 27281
" />
<path d="M58215 26805
L58215 26757
L58242 26710
L58268 26686
L58320 26662
L58425 26638
L58556 26638
L58661 26662
L58713 26686
L58739 26710
L58765 26757
L58765 26805
L58739 26853
L58713 26876
L58661 26900
L58556 26924
L58425 26924
L58320 26900
L58268 26876
L58242 26853
L58215 26805
" />
<path d="M58765 26424
L58215 26424
" />
<path d="M58765 26138
L58451 26353
" />
<path d="M58215 26138
L58530 26424
" />
<path d="M61718 30597
L61456 30763
" />
<path d="M61718 30882
L61168 30882
L61168 30692
L61194 30644
L61221 30620
L61273 30597
L61352 30597
L61404 30620
L61430 30644
L61456 30692
L61456 30882
" />
<path d="M61718 30120
L61718 30406
" />
<path d="M61718 30263
L61168 30263
L61247 30311
L61299 30358
L61325 30406
" />
<path d="M61168 29668
L61168 29906
L61430 29930
L61404 29906
L61378 29858
L61378 29739
L61404 29692
L61430 29668
L61482 29644
L61613 29644
L61666 29668
L61692 29692
L61718 29739
L61718 29858
L61692 29906
L61666 29930
" />
<path d="M61260 28611
L61234 28587
L61208 28539
L61208 28420
L61234 28373
L61260 28349
L61312 28325
L61365 28325
L61443 28349
L61758 28634
L61758 28325
" />
<path d="M61260 28134
L61234 28111
L61208 28063
L61208 27944
L61234 27896
L61260 27873
L61312 27849
L61365 27849
L61443 27873
L61758 28158
L61758 27849
" />
<path d="M61208 27539
L61208 27492
L61234 27444
L61260 27420
L61312 27396
L61417 27373
L61548 27373
L61653 27396
L61705 27420
L61731 27444
L61758 27492
L61758 27539
L61731 27587
L61705 27611
L61653 27634
L61548 27658
L61417 27658
L61312 27634
L61260 27611
L61234 27587
L61208 27539
" />
<path d="M51777 30577
L51515 30744
" />
<path d="M51777 30863
L51227 30863
L51227 30672
L51253 30624
L51280 30601
L51332 30577
L51411 30577
L51463 30601
L51489 30624
L51515 30672
L51515 30863
" />
<path d="M51777 30101
L51777 30386
" />
<path d="M51777 30244
L51227 30244
L51306 30291
L51358 30339
L51384 30386
" />
<path d="M51227 29934
L51227 29601
L51777 29815
" />
<path d="M51280 28611
L51253 28587
L51227 28539
L51227 28420
L51253 28373
L51280 28349
L51332 28325
L51384 28325
L51463 28349
L51777 28634
L51777 28325
" />
<path d="M51280 28134
L51253 28111
L51227 28063
L51227 27944
L51253 27896
L51280 27873
L51332 27849
L51384 27849
L51463 27873
L51777 28158
L51777 27849
" />
<path d="M51227 27539
L51227 27492
L51253 27444
L51280 27420
L51332 27396
L51437 27373
L51568 27373
L51672 27396
L51725 27420
L51751 27444
L51777 27492
L51777 27539
L51751 27587
L51725 27611
L51672 27634
L51568 27658
L51437 27658
L51332 27634
L51280 27611
L51253 27587
L51227 27539
" />
<path d="M62722 38075
L62460 38242
" />
<path d="M62722 38361
L62172 38361
L62172 38170
L62198 38123
L62225 38099
L62277 38075
L62355 38075
L62408 38099
L62434 38123
L62460 38170
L62460 38361
" />
<path d="M62172 37908
L62172 37575
L62722 37789
" />
<path d="M62231 40142
L62231 40238
L62257 40285
L62284 40309
L62362 40357
L62467 40380
L62676 40380
L62729 40357
L62755 40333
L62781 40285
L62781 40190
L62755 40142
L62729 40119
L62676 40095
L62545 40095
L62493 40119
L62467 40142
L62441 40190
L62441 40285
L62467 40333
L62493 40357
L62545 40380
" />
<path d="M62467 39809
L62441 39857
L62415 39880
L62362 39904
L62336 39904
L62284 39880
L62257 39857
L62231 39809
L62231 39714
L62257 39666
L62284 39642
L62336 39619
L62362 39619
L62415 39642
L62441 39666
L62467 39714
L62467 39809
L62493 39857
L62519 39880
L62572 39904
L62676 39904
L62729 39880
L62755 39857
L62781 39809
L62781 39714
L62755 39666
L62729 39642
L62676 39619
L62572 39619
L62519 39642
L62493 39666
L62467 39714
" />
<path d="M53726 38095
L53464 38261
" />
<path d="M53726 38380
L53176 38380
L53176 38190
L53202 38142
L53228 38118
L53281 38095
L53359 38095
L53412 38118
L53438 38142
L53464 38190
L53464 38380
" />
<path d="M53412 37809
L53386 37857
L53359 37880
L53307 37904
L53281 37904
L53228 37880
L53202 37857
L53176 37809
L53176 37714
L53202 37666
L53228 37642
L53281 37618
L53307 37618
L53359 37642
L53386 37666
L53412 37714
L53412 37809
L53438 37857
L53464 37880
L53517 37904
L53621 37904
L53674 37880
L53700 37857
L53726 37809
L53726 37714
L53700 37666
L53674 37642
L53621 37618
L53517 37618
L53464 37642
L53438 37666
L53412 37714
" />
<path d="M53235 40162
L53235 40257
L53261 40305
L53287 40329
L53366 40376
L53471 40400
L53680 40400
L53733 40376
L53759 40353
L53785 40305
L53785 40210
L53759 40162
L53733 40138
L53680 40114
L53549 40114
L53497 40138
L53471 40162
L53445 40210
L53445 40305
L53471 40353
L53497 40376
L53549 40400
" />
<path d="M53471 39829
L53445 39876
L53418 39900
L53366 39924
L53340 39924
L53287 39900
L53261 39876
L53235 39829
L53235 39733
L53261 39686
L53287 39662
L53340 39638
L53366 39638
L53418 39662
L53445 39686
L53471 39733
L53471 39829
L53497 39876
L53523 39900
L53576 39924
L53680 39924
L53733 39900
L53759 39876
L53785 39829
L53785 39733
L53759 39686
L53733 39662
L53680 39638
L53576 39638
L53523 39662
L53497 39686
L53471 39733
" />
<path d="M55881 46718
L55714 46456
" />
<path d="M55595 46718
L55595 46168
L55785 46168
L55833 46194
L55857 46221
L55881 46273
L55881 46352
L55857 46404
L55833 46430
L55785 46456
L55595 46456
" />
<path d="M56119 46718
L56214 46718
L56262 46692
L56285 46666
L56333 46587
L56357 46482
L56357 46273
L56333 46221
L56309 46194
L56262 46168
L56166 46168
L56119 46194
L56095 46221
L56071 46273
L56071 46404
L56095 46456
L56119 46482
L56166 46509
L56262 46509
L56309 46482
L56333 46456
L56357 46404
" />
<path d="M57857 46172
L57761 46172
L57714 46198
L57690 46225
L57642 46303
L57619 46408
L57619 46617
L57642 46670
L57666 46696
L57714 46722
L57809 46722
L57857 46696
L57880 46670
L57904 46617
L57904 46486
L57880 46434
L57857 46408
L57809 46382
L57714 46382
L57666 46408
L57642 46434
L57619 46486
" />
<path d="M58190 46408
L58142 46382
L58119 46355
L58095 46303
L58095 46277
L58119 46225
L58142 46198
L58190 46172
L58285 46172
L58333 46198
L58357 46225
L58380 46277
L58380 46303
L58357 46355
L58333 46382
L58285 46408
L58190 46408
L58142 46434
L58119 46460
L58095 46513
L58095 46617
L58119 46670
L58142 46696
L58190 46722
L58285 46722
L58333 46696
L58357 46670
L58380 46617
L58380 46513
L58357 46460
L58333 46434
L58285 46408
" />
<path d="M50734 38097
L50472 38263
" />
<path d="M50734 38382
L50184 38382
L50184 38192
L50210 38144
L50236 38120
L50289 38097
L50367 38097
L50420 38120
L50446 38144
L50472 38192
L50472 38382
" />
<path d="M50734 37620
L50734 37906
" />
<path d="M50734 37763
L50184 37763
L50263 37811
L50315 37858
L50341 37906
" />
<path d="M50184 37311
L50184 37263
L50210 37216
L50236 37192
L50289 37168
L50393 37144
L50524 37144
L50629 37168
L50682 37192
L50708 37216
L50734 37263
L50734 37311
L50708 37358
L50682 37382
L50629 37406
L50524 37430
L50393 37430
L50289 37406
L50236 37382
L50210 37358
L50184 37311
" />
<path d="M50773 40345
L50773 40630
" />
<path d="M50773 40488
L50223 40488
L50302 40535
L50354 40583
L50380 40630
" />
<path d="M50223 40035
L50223 39988
L50249 39940
L50276 39916
L50328 39892
L50433 39869
L50564 39869
L50669 39892
L50721 39916
L50747 39940
L50773 39988
L50773 40035
L50747 40083
L50721 40107
L50669 40130
L50564 40154
L50433 40154
L50328 40130
L50276 40107
L50249 40083
L50223 40035
" />
<path d="M50773 39654
L50223 39654
" />
<path d="M50773 39369
L50459 39583
" />
<path d="M50223 39369
L50538 39654
" />
<path d="M61718 38077
L61456 38244
" />
<path d="M61718 38363
L61168 38363
L61168 38172
L61194 38124
L61221 38101
L61273 38077
L61352 38077
L61404 38101
L61430 38124
L61456 38172
L61456 38363
" />
<path d="M61718 37601
L61718 37886
" />
<path d="M61718 37744
L61168 37744
L61247 37791
L61299 37839
L61325 37886
" />
<path d="M61718 37124
L61718 37410
" />
<path d="M61718 37267
L61168 37267
L61247 37315
L61299 37363
L61325 37410
" />
<path d="M61777 40364
L61777 40650
" />
<path d="M61777 40507
L61227 40507
L61306 40555
L61358 40603
L61384 40650
" />
<path d="M61227 40055
L61227 40007
L61253 39960
L61280 39936
L61332 39912
L61437 39888
L61568 39888
L61672 39912
L61725 39936
L61751 39960
L61777 40007
L61777 40055
L61751 40103
L61725 40126
L61672 40150
L61568 40174
L61437 40174
L61332 40150
L61280 40126
L61253 40103
L61227 40055
" />
<path d="M61777 39674
L61227 39674
" />
<path d="M61777 39388
L61463 39603
" />
<path d="M61227 39388
L61542 39674
" />
<path d="M63746 38097
L63484 38263
" />
<path d="M63746 38382
L63196 38382
L63196 38192
L63222 38144
L63248 38120
L63301 38097
L63379 38097
L63431 38120
L63458 38144
L63484 38192
L63484 38382
" />
<path d="M63746 37620
L63746 37906
" />
<path d="M63746 37763
L63196 37763
L63274 37811
L63327 37858
L63353 37906
" />
<path d="M63248 37430
L63222 37406
L63196 37358
L63196 37239
L63222 37192
L63248 37168
L63301 37144
L63353 37144
L63431 37168
L63746 37454
L63746 37144
" />
<path d="M63765 40345
L63765 40630
" />
<path d="M63765 40488
L63215 40488
L63294 40535
L63346 40583
L63373 40630
" />
<path d="M63215 40035
L63215 39988
L63242 39940
L63268 39916
L63320 39892
L63425 39869
L63556 39869
L63661 39892
L63713 39916
L63739 39940
L63765 39988
L63765 40035
L63739 40083
L63713 40107
L63661 40130
L63556 40154
L63425 40154
L63320 40130
L63268 40107
L63242 40083
L63215 40035
" />
<path d="M63765 39654
L63215 39654
" />
<path d="M63765 39369
L63451 39583
" />
<path d="M63215 39369
L63530 39654
" />
<path d="M63706 30597
L63444 30763
" />
<path d="M63706 30882
L63156 30882
L63156 30692
L63183 30644
L63209 30620
L63261 30597
L63340 30597
L63392 30620
L63418 30644
L63444 30692
L63444 30882
" />
<path d="M63706 30120
L63706 30406
" />
<path d="M63706 30263
L63156 30263
L63235 30311
L63287 30358
L63314 30406
" />
<path d="M63156 29954
L63156 29644
L63366 29811
L63366 29739
L63392 29692
L63418 29668
L63471 29644
L63602 29644
L63654 29668
L63680 29692
L63706 29739
L63706 29882
L63680 29930
L63654 29954
" />
<path d="M63248 28611
L63222 28587
L63196 28539
L63196 28420
L63222 28373
L63248 28349
L63301 28325
L63353 28325
L63431 28349
L63746 28634
L63746 28325
" />
<path d="M63248 28134
L63222 28111
L63196 28063
L63196 27944
L63222 27896
L63248 27873
L63301 27849
L63353 27849
L63431 27873
L63746 28158
L63746 27849
" />
<path d="M63196 27539
L63196 27492
L63222 27444
L63248 27420
L63301 27396
L63405 27373
L63536 27373
L63641 27396
L63693 27420
L63720 27444
L63746 27492
L63746 27539
L63720 27587
L63693 27611
L63641 27634
L63536 27658
L63405 27658
L63301 27634
L63248 27611
L63222 27587
L63196 27539
" />
<path d="M62722 30597
L62460 30763
" />
<path d="M62722 30882
L62172 30882
L62172 30692
L62198 30644
L62225 30620
L62277 30597
L62355 30597
L62408 30620
L62434 30644
L62460 30692
L62460 30882
" />
<path d="M62722 30120
L62722 30406
" />
<path d="M62722 30263
L62172 30263
L62251 30311
L62303 30358
L62329 30406
" />
<path d="M62355 29692
L62722 29692
" />
<path d="M62146 29811
L62539 29930
L62539 29620
" />
<path d="M62284 28611
L62257 28587
L62231 28539
L62231 28420
L62257 28373
L62284 28349
L62336 28325
L62388 28325
L62467 28349
L62781 28634
L62781 28325
" />
<path d="M62284 28134
L62257 28111
L62231 28063
L62231 27944
L62257 27896
L62284 27873
L62336 27849
L62388 27849
L62467 27873
L62781 28158
L62781 27849
" />
<path d="M62231 27539
L62231 27492
L62257 27444
L62284 27420
L62336 27396
L62441 27373
L62572 27373
L62676 27396
L62729 27420
L62755 27444
L62781 27492
L62781 27539
L62755 27587
L62729 27611
L62676 27634
L62572 27658
L62441 27658
L62336 27634
L62284 27611
L62257 27587
L62231 27539
" />
<path d="M52722 38077
L52460 38244
" />
<path d="M52722 38363
L52172 38363
L52172 38172
L52198 38124
L52225 38101
L52277 38077
L52355 38077
L52408 38101
L52434 38124
L52460 38172
L52460 38363
" />
<path d="M52225 37886
L52198 37863
L52172 37815
L52172 37696
L52198 37648
L52225 37624
L52277 37601
L52329 37601
L52408 37624
L52722 37910
L52722 37601
" />
<path d="M52172 37434
L52172 37124
L52382 37291
L52382 37220
L52408 37172
L52434 37148
L52486 37124
L52617 37124
L52670 37148
L52696 37172
L52722 37220
L52722 37363
L52696 37410
L52670 37434
" />
<path d="M52781 40333
L52781 40619
" />
<path d="M52781 40476
L52231 40476
L52310 40523
L52362 40571
L52388 40619
" />
<path d="M52231 39880
L52231 40119
L52493 40142
L52467 40119
L52441 40071
L52441 39952
L52467 39904
L52493 39880
L52545 39857
L52676 39857
L52729 39880
L52755 39904
L52781 39952
L52781 40071
L52755 40119
L52729 40142
" />
<path d="M52231 39547
L52231 39500
L52257 39452
L52284 39428
L52336 39404
L52441 39380
L52572 39380
L52676 39404
L52729 39428
L52755 39452
L52781 39500
L52781 39547
L52755 39595
L52729 39619
L52676 39642
L52572 39666
L52441 39666
L52336 39642
L52284 39619
L52257 39595
L52231 39547
" />
<path d="M51718 38077
L51456 38244
" />
<path d="M51718 38363
L51168 38363
L51168 38172
L51194 38124
L51221 38101
L51273 38077
L51352 38077
L51404 38101
L51430 38124
L51456 38172
L51456 38363
" />
<path d="M51221 37886
L51194 37863
L51168 37815
L51168 37696
L51194 37648
L51221 37624
L51273 37601
L51325 37601
L51404 37624
L51718 37910
L51718 37601
" />
<path d="M51221 37410
L51194 37386
L51168 37339
L51168 37220
L51194 37172
L51221 37148
L51273 37124
L51325 37124
L51404 37148
L51718 37434
L51718 37124
" />
<path d="M51777 40333
L51777 40619
" />
<path d="M51777 40476
L51227 40476
L51306 40523
L51358 40571
L51384 40619
" />
<path d="M51227 39880
L51227 40119
L51489 40142
L51463 40119
L51437 40071
L51437 39952
L51463 39904
L51489 39880
L51542 39857
L51672 39857
L51725 39880
L51751 39904
L51777 39952
L51777 40071
L51751 40119
L51725 40142
" />
<path d="M51227 39547
L51227 39500
L51253 39452
L51280 39428
L51332 39404
L51437 39380
L51568 39380
L51672 39404
L51725 39428
L51751 39452
L51777 39500
L51777 39547
L51751 39595
L51725 39619
L51672 39642
L51568 39666
L51437 39666
L51332 39642
L51280 39619
L51253 39595
L51227 39547
" />
<path d="M60734 30597
L60472 30763
" />
<path d="M60734 30882
L60184 30882
L60184 30692
L60210 30644
L60236 30620
L60289 30597
L60367 30597
L60420 30620
L60446 30644
L60472 30692
L60472 30882
" />
<path d="M60236 30406
L60210 30382
L60184 30335
L60184 30216
L60210 30168
L60236 30144
L60289 30120
L60341 30120
L60420 30144
L60734 30430
L60734 30120
" />
<path d="M60734 29644
L60734 29930
" />
<path d="M60734 29787
L60184 29787
L60263 29835
L60315 29882
L60341 29930
" />
<path d="M60256 28611
L60230 28587
L60204 28539
L60204 28420
L60230 28373
L60256 28349
L60308 28325
L60361 28325
L60439 28349
L60754 28634
L60754 28325
" />
<path d="M60256 28134
L60230 28111
L60204 28063
L60204 27944
L60230 27896
L60256 27873
L60308 27849
L60361 27849
L60439 27873
L60754 28158
L60754 27849
" />
<path d="M60204 27539
L60204 27492
L60230 27444
L60256 27420
L60308 27396
L60413 27373
L60544 27373
L60649 27396
L60701 27420
L60727 27444
L60754 27492
L60754 27539
L60727 27587
L60701 27611
L60649 27634
L60544 27658
L60413 27658
L60308 27634
L60256 27611
L60230 27587
L60204 27539
" />
<path d="M54809 30616
L54547 30783
" />
<path d="M54809 30902
L54259 30902
L54259 30711
L54285 30664
L54311 30640
L54363 30616
L54442 30616
L54494 30640
L54521 30664
L54547 30711
L54547 30902
" />
<path d="M54311 30426
L54285 30402
L54259 30354
L54259 30235
L54285 30188
L54311 30164
L54363 30140
L54416 30140
L54494 30164
L54809 30450
L54809 30140
" />
<path d="M54259 29830
L54259 29783
L54285 29735
L54311 29711
L54363 29688
L54468 29664
L54599 29664
L54704 29688
L54756 29711
L54783 29735
L54809 29783
L54809 29830
L54783 29878
L54756 29902
L54704 29926
L54599 29950
L54468 29950
L54363 29926
L54311 29902
L54285 29878
L54259 29830
" />
<path d="M54272 28611
L54246 28587
L54219 28539
L54219 28420
L54246 28373
L54272 28349
L54324 28325
L54377 28325
L54455 28349
L54769 28634
L54769 28325
" />
<path d="M54272 28134
L54246 28111
L54219 28063
L54219 27944
L54246 27896
L54272 27873
L54324 27849
L54377 27849
L54455 27873
L54769 28158
L54769 27849
" />
<path d="M54219 27539
L54219 27492
L54246 27444
L54272 27420
L54324 27396
L54429 27373
L54560 27373
L54665 27396
L54717 27420
L54743 27444
L54769 27492
L54769 27539
L54743 27587
L54717 27611
L54665 27634
L54560 27658
L54429 27658
L54324 27634
L54272 27611
L54246 27587
L54219 27539
" />
<path d="M53765 30597
L53504 30763
" />
<path d="M53765 30882
L53215 30882
L53215 30692
L53242 30644
L53268 30620
L53320 30597
L53399 30597
L53451 30620
L53477 30644
L53504 30692
L53504 30882
" />
<path d="M53765 30120
L53765 30406
" />
<path d="M53765 30263
L53215 30263
L53294 30311
L53346 30358
L53373 30406
" />
<path d="M53765 29882
L53765 29787
L53739 29739
L53713 29716
L53634 29668
L53530 29644
L53320 29644
L53268 29668
L53242 29692
L53215 29739
L53215 29835
L53242 29882
L53268 29906
L53320 29930
L53451 29930
L53504 29906
L53530 29882
L53556 29835
L53556 29739
L53530 29692
L53504 29668
L53451 29644
" />
<path d="M53268 28611
L53242 28587
L53215 28539
L53215 28420
L53242 28373
L53268 28349
L53320 28325
L53373 28325
L53451 28349
L53765 28634
L53765 28325
" />
<path d="M53268 28134
L53242 28111
L53215 28063
L53215 27944
L53242 27896
L53268 27873
L53320 27849
L53373 27849
L53451 27873
L53765 28158
L53765 27849
" />
<path d="M53215 27539
L53215 27492
L53242 27444
L53268 27420
L53320 27396
L53425 27373
L53556 27373
L53661 27396
L53713 27420
L53739 27444
L53765 27492
L53765 27539
L53739 27587
L53713 27611
L53661 27634
L53556 27658
L53425 27658
L53320 27634
L53268 27611
L53242 27587
L53215 27539
" />
<path d="M52742 30597
L52480 30763
" />
<path d="M52742 30882
L52192 30882
L52192 30692
L52218 30644
L52244 30620
L52297 30597
L52375 30597
L52428 30620
L52454 30644
L52480 30692
L52480 30882
" />
<path d="M52742 30120
L52742 30406
" />
<path d="M52742 30263
L52192 30263
L52270 30311
L52323 30358
L52349 30406
" />
<path d="M52428 29835
L52401 29882
L52375 29906
L52323 29930
L52297 29930
L52244 29906
L52218 29882
L52192 29835
L52192 29739
L52218 29692
L52244 29668
L52297 29644
L52323 29644
L52375 29668
L52401 29692
L52428 29739
L52428 29835
L52454 29882
L52480 29906
L52532 29930
L52637 29930
L52689 29906
L52716 29882
L52742 29835
L52742 29739
L52716 29692
L52689 29668
L52637 29644
L52532 29644
L52480 29668
L52454 29692
L52428 29739
" />
<path d="M52264 28611
L52238 28587
L52211 28539
L52211 28420
L52238 28373
L52264 28349
L52316 28325
L52369 28325
L52447 28349
L52761 28634
L52761 28325
" />
<path d="M52264 28134
L52238 28111
L52211 28063
L52211 27944
L52238 27896
L52264 27873
L52316 27849
L52369 27849
L52447 27873
L52761 28158
L52761 27849
" />
<path d="M52211 27539
L52211 27492
L52238 27444
L52264 27420
L52316 27396
L52421 27373
L52552 27373
L52657 27396
L52709 27420
L52735 27444
L52761 27492
L52761 27539
L52735 27587
L52709 27611
L52657 27634
L52552 27658
L52421 27658
L52316 27634
L52264 27611
L52238 27587
L52211 27539
" />
</g>
<g style="fill:#000000; fill-opacity:0.0; 
stroke:#000000; stroke-width:39; stroke-opacity:1; 
stroke-linecap:round; stroke-linejoin:round;">
<path d="M61974 52640
L62030 52659
L62124 52659
L62162 52640
L62181 52621
L62199 52584
L62199 52546
L62181 52509
L62162 52490
L62124 52471
L62049 52453
L62012 52434
L61993 52415
L61974 52378
L61974 52340
L61993 52303
L62012 52284
L62049 52265
L62143 52265
L62199 52284
" />
<path d="M62331 52265
L62424 52659
L62500 52378
L62575 52659
L62668 52265
" />
<path d="M62781 52265
L63025 52265
L62894 52415
L62950 52415
L62987 52434
L63006 52453
L63025 52490
L63025 52584
L63006 52621
L62987 52640
L62950 52659
L62837 52659
L62800 52640
L62781 52621
" />
</g>
<g style="fill:#000000; fill-opacity:0.0; 
stroke:#000000; stroke-width:80; stroke-opacity:1; 
stroke-linecap:round; stroke-linejoin:round;">
</g>
<g style="fill:#000000; fill-opacity:0.0; 
stroke:#000000; stroke-width:39; stroke-opacity:1; 
stroke-linecap:round; stroke-linejoin:round;">
<path d="M61974 48640
L62030 48659
L62124 48659
L62162 48640
L62181 48621
L62199 48584
L62199 48546
L62181 48509
L62162 48490
L62124 48471
L62049 48453
L62012 48434
L61993 48415
L61974 48378
L61974 48340
L61993 48303
L62012 48284
L62049 48265
L62143 48265
L62199 48284
" />
<path d="M62331 48265
L62424 48659
L62500 48378
L62575 48659
L62668 48265
" />
<path d="M62800 48303
L62818 48284
L62856 48265
L62950 48265
L62987 48284
L63006 48303
L63025 48340
L63025 48378
L63006 48434
L62781 48659
L63025 48659
" />
</g>
<g style="fill:#000000; fill-opacity:0.0; 
stroke:#000000; stroke-width:80; stroke-opacity:1; 
stroke-linecap:round; stroke-linejoin:round;">
</g>
<g style="fill:#000000; fill-opacity:0.0; 
stroke:#000000; stroke-width:39; stroke-opacity:1; 
stroke-linecap:round; stroke-linejoin:round;">
<path d="M51640 53025
L51659 52969
L51659 52875
L51640 52837
L51621 52818
L51584 52800
L51546 52800
L51509 52818
L51490 52837
L51471 52875
L51453 52950
L51434 52987
L51415 53006
L51378 53025
L51340 53025
L51303 53006
L51284 52987
L51265 52950
L51265 52856
L51284 52800
" />
<path d="M51265 52668
L51659 52575
L51378 52500
L51659 52424
L51265 52331
" />
<path d="M51659 51974
L51659 52199
" />
<path d="M51659 52087
L51265 52087
L51321 52124
L51359 52162
L51378 52199
" />
</g>
<g style="fill:#000000; fill-opacity:0.0; 
stroke:#000000; stroke-width:80; stroke-opacity:1; 
stroke-linecap:round; stroke-linejoin:round;">
</g>
<g style="fill:#000000; fill-opacity:0.0; 
stroke:#000000; stroke-width:35; stroke-opacity:1; 
stroke-linecap:round; stroke-linejoin:round;">
<path d="M49936 23467
L49936 23167
L50007 23167
L50050 23182
L50078 23210
L50093 23239
L50107 23296
L50107 23339
L50093 23396
L50078 23425
L50050 23453
L50007 23467
L49936 23467
" />
<path d="M50207 23167
L50407 23167
L50278 23467
" />
<path d="M50459 21597
L50316 21597
L50316 21297
" />
<path d="M50559 21440
L50659 21440
" />
<path d="M50702 21597
L50559 21597
L50559 21297
L50702 21297
" />
<path d="M50830 21597
L50830 21297
L50902 21297
L50944 21312
L50973 21340
L50987 21369
L51002 21426
L51002 21469
L50987 21526
L50973 21554
L50944 21583
L50902 21597
L50830 21597
" />
<path d="M51102 21297
L51287 21297
L51187 21412
L51230 21412
L51259 21426
L51273 21440
L51287 21469
L51287 21540
L51273 21569
L51259 21583
L51230 21597
L51144 21597
L51116 21583
L51102 21569
" />
<path d="M51573 21312
L51544 21297
L51502 21297
L51459 21312
L51430 21340
L51416 21369
L51402 21426
L51402 21469
L51416 21526
L51430 21554
L51459 21583
L51502 21597
L51530 21597
L51573 21583
L51587 21569
L51587 21469
L51530 21469
" />
<path d="M52101 23448
L52101 23148
L52172 23148
L52215 23162
L52244 23191
L52258 23219
L52272 23276
L52272 23319
L52258 23376
L52244 23405
L52215 23433
L52172 23448
L52101 23448
" />
<path d="M52444 23276
L52415 23262
L52401 23248
L52387 23219
L52387 23205
L52401 23176
L52415 23162
L52444 23148
L52501 23148
L52529 23162
L52544 23176
L52558 23205
L52558 23219
L52544 23248
L52529 23262
L52501 23276
L52444 23276
L52415 23291
L52401 23305
L52387 23333
L52387 23391
L52401 23419
L52415 23433
L52444 23448
L52501 23448
L52529 23433
L52544 23419
L52558 23391
L52558 23333
L52544 23305
L52529 23291
L52501 23276
" />
<path d="M52526 21578
L52383 21578
L52383 21278
" />
<path d="M52626 21420
L52726 21420
" />
<path d="M52768 21578
L52626 21578
L52626 21278
L52768 21278
" />
<path d="M52897 21578
L52897 21278
L52968 21278
L53011 21292
L53040 21320
L53054 21349
L53068 21406
L53068 21449
L53054 21506
L53040 21535
L53011 21563
L52968 21578
L52897 21578
" />
<path d="M53168 21278
L53354 21278
L53254 21392
L53297 21392
L53326 21406
L53340 21420
L53354 21449
L53354 21520
L53340 21549
L53326 21563
L53297 21578
L53211 21578
L53183 21563
L53168 21549
" />
<path d="M53640 21292
L53611 21278
L53568 21278
L53526 21292
L53497 21320
L53483 21349
L53468 21406
L53468 21449
L53483 21506
L53497 21535
L53526 21563
L53568 21578
L53597 21578
L53640 21563
L53654 21549
L53654 21449
L53597 21449
" />
<path d="M54089 23448
L54089 23148
L54161 23148
L54203 23162
L54232 23191
L54246 23219
L54261 23276
L54261 23319
L54246 23376
L54232 23405
L54203 23433
L54161 23448
L54089 23448
" />
<path d="M54403 23448
L54461 23448
L54489 23433
L54503 23419
L54532 23376
L54546 23319
L54546 23205
L54532 23176
L54518 23162
L54489 23148
L54432 23148
L54403 23162
L54389 23176
L54375 23205
L54375 23276
L54389 23305
L54403 23319
L54432 23333
L54489 23333
L54518 23319
L54532 23305
L54546 23276
" />
<path d="M54535 21597
L54392 21597
L54392 21297
" />
<path d="M54635 21440
L54735 21440
" />
<path d="M54778 21597
L54635 21597
L54635 21297
L54778 21297
" />
<path d="M54907 21597
L54907 21297
L54978 21297
L55021 21312
L55050 21340
L55064 21369
L55078 21426
L55078 21469
L55064 21526
L55050 21554
L55021 21583
L54978 21597
L54907 21597
" />
<path d="M55178 21297
L55364 21297
L55264 21412
L55307 21412
L55335 21426
L55350 21440
L55364 21469
L55364 21540
L55350 21569
L55335 21583
L55307 21597
L55221 21597
L55192 21583
L55178 21569
" />
<path d="M55550 21454
L55550 21597
" />
<path d="M55450 21297
L55550 21454
L55650 21297
" />
<path d="M48594 45973
L48580 46002
L48552 46030
L48509 46073
L48494 46102
L48494 46130
" />
<path d="M48566 46116
L48552 46144
L48523 46173
L48466 46187
L48366 46187
L48309 46173
L48280 46144
L48266 46116
L48266 46059
L48280 46030
L48309 46002
L48366 45987
L48466 45987
L48523 46002
L48552 46030
L48566 46059
L48566 46116
" />
<path d="M48566 45702
L48566 45873
" />
<path d="M48566 45787
L48266 45787
L48309 45816
L48337 45844
L48352 45873
" />
<path d="M50771 46746
L50771 46889
L50471 46889
" />
<path d="M50471 46689
L50471 46518
" />
<path d="M50771 46603
L50471 46603
" />
<path d="M50771 46246
L50628 46346
" />
<path d="M50771 46418
L50471 46418
L50471 46303
L50485 46275
L50499 46261
L50528 46246
L50571 46246
L50599 46261
L50613 46275
L50628 46303
L50628 46418
" />
<path d="M50571 45989
L50771 45989
" />
<path d="M50456 46061
L50671 46132
L50671 45946
" />
<path d="M50499 45846
L50485 45832
L50471 45803
L50471 45732
L50485 45703
L50499 45689
L50528 45675
L50556 45675
L50599 45689
L50771 45861
L50771 45675
" />
<path d="M50471 45489
L50471 45461
L50485 45432
L50499 45418
L50528 45403
L50585 45389
L50656 45389
L50713 45403
L50742 45418
L50756 45432
L50771 45461
L50771 45489
L50756 45518
L50742 45532
L50713 45546
L50656 45561
L50585 45561
L50528 45546
L50499 45532
L50485 45518
L50471 45489
" />
<path d="M50471 45132
L50471 45189
L50485 45218
L50499 45232
L50542 45261
L50599 45275
L50713 45275
L50742 45261
L50756 45246
L50771 45218
L50771 45161
L50756 45132
L50742 45118
L50713 45103
L50642 45103
L50613 45118
L50599 45132
L50585 45161
L50585 45218
L50599 45246
L50613 45261
L50642 45275
" />
<path d="M58164 23467
L58164 23167
L58235 23167
L58278 23182
L58307 23210
L58321 23239
L58335 23296
L58335 23339
L58321 23396
L58307 23425
L58278 23453
L58235 23467
L58164 23467
" />
<path d="M58621 23467
L58450 23467
" />
<path d="M58535 23467
L58535 23167
L58507 23210
L58478 23239
L58450 23253
" />
<path d="M58549 21617
L58406 21617
L58406 21317
" />
<path d="M58649 21460
L58749 21460
" />
<path d="M58792 21617
L58649 21617
L58649 21317
L58792 21317
" />
<path d="M58921 21617
L58921 21317
L58992 21317
L59035 21331
L59064 21360
L59078 21388
L59092 21446
L59092 21488
L59078 21546
L59064 21574
L59035 21603
L58992 21617
L58921 21617
" />
<path d="M59192 21317
L59378 21317
L59278 21431
L59321 21431
L59349 21446
L59364 21460
L59378 21488
L59378 21560
L59364 21588
L59349 21603
L59321 21617
L59235 21617
L59206 21603
L59192 21588
" />
<path d="M59678 21617
L59578 21474
" />
<path d="M59506 21617
L59506 21317
L59621 21317
L59649 21331
L59664 21346
L59678 21374
L59678 21417
L59664 21446
L59649 21460
L59621 21474
L59506 21474
" />
<path d="M55993 23526
L55993 23226
L56065 23226
L56108 23241
L56136 23269
L56151 23298
L56165 23355
L56165 23398
L56151 23455
L56136 23484
L56108 23512
L56065 23526
L55993 23526
" />
<path d="M56451 23526
L56279 23526
" />
<path d="M56365 23526
L56365 23226
L56336 23269
L56308 23298
L56279 23312
" />
<path d="M56636 23226
L56665 23226
L56693 23241
L56708 23255
L56722 23284
L56736 23341
L56736 23412
L56722 23469
L56708 23498
L56693 23512
L56665 23526
L56636 23526
L56608 23512
L56593 23498
L56579 23469
L56565 23412
L56565 23341
L56579 23284
L56593 23255
L56608 23241
L56636 23226
" />
<path d="M56563 21597
L56420 21597
L56420 21297
" />
<path d="M56663 21440
L56763 21440
" />
<path d="M56806 21597
L56663 21597
L56663 21297
L56806 21297
" />
<path d="M56934 21597
L56934 21297
L57006 21297
L57048 21312
L57077 21340
L57091 21369
L57106 21426
L57106 21469
L57091 21526
L57077 21554
L57048 21583
L57006 21597
L56934 21597
" />
<path d="M57206 21297
L57391 21297
L57291 21412
L57334 21412
L57363 21426
L57377 21440
L57391 21469
L57391 21540
L57377 21569
L57363 21583
L57334 21597
L57248 21597
L57220 21583
L57206 21569
" />
<path d="M57577 21454
L57577 21597
" />
<path d="M57477 21297
L57577 21454
L57677 21297
" />
<path d="M59871 23467
L59871 23167
L59943 23167
L59986 23182
L60014 23210
L60029 23239
L60043 23296
L60043 23339
L60029 23396
L60014 23425
L59986 23453
L59943 23467
L59871 23467
" />
<path d="M60329 23467
L60157 23467
" />
<path d="M60243 23467
L60243 23167
L60214 23210
L60186 23239
L60157 23253
" />
<path d="M60614 23467
L60443 23467
" />
<path d="M60529 23467
L60529 23167
L60500 23210
L60471 23239
L60443 23253
" />
<path d="M60577 21617
L60434 21617
L60434 21317
" />
<path d="M60677 21460
L60777 21460
" />
<path d="M60820 21617
L60677 21617
L60677 21317
L60820 21317
" />
<path d="M60948 21617
L60948 21317
L61020 21317
L61062 21331
L61091 21360
L61105 21388
L61120 21446
L61120 21488
L61105 21546
L61091 21574
L61062 21603
L61020 21617
L60948 21617
" />
<path d="M61220 21317
L61405 21317
L61305 21431
L61348 21431
L61377 21446
L61391 21460
L61405 21488
L61405 21560
L61391 21588
L61377 21603
L61348 21617
L61262 21617
L61234 21603
L61220 21588
" />
<path d="M61705 21617
L61605 21474
" />
<path d="M61534 21617
L61534 21317
L61648 21317
L61677 21331
L61691 21346
L61705 21374
L61705 21417
L61691 21446
L61677 21460
L61648 21474
L61534 21474
" />
<path d="M48546 43376
L48246 43376
L48246 43304
L48260 43261
L48289 43233
L48318 43218
L48375 43204
L48418 43204
L48475 43218
L48503 43233
L48532 43261
L48546 43304
L48546 43376
" />
<path d="M48546 42918
L48546 43090
" />
<path d="M48546 43004
L48246 43004
L48289 43033
L48318 43061
L48332 43090
" />
<path d="M48275 42804
L48260 42790
L48246 42761
L48246 42690
L48260 42661
L48275 42647
L48303 42633
L48332 42633
L48375 42647
L48546 42818
L48546 42633
" />
<path d="M50731 43868
L50731 44011
L50431 44011
" />
<path d="M50574 43768
L50574 43668
" />
<path d="M50731 43626
L50731 43768
L50431 43768
L50431 43626
" />
<path d="M50731 43497
L50431 43497
L50431 43426
L50445 43383
L50474 43354
L50503 43340
L50560 43326
L50603 43326
L50660 43340
L50688 43354
L50717 43383
L50731 43426
L50731 43497
" />
<path d="M50431 43226
L50431 43040
L50545 43140
L50545 43097
L50560 43068
L50574 43054
L50603 43040
L50674 43040
L50703 43054
L50717 43068
L50731 43097
L50731 43183
L50717 43211
L50703 43226
" />
<path d="M50731 42740
L50588 42840
" />
<path d="M50731 42911
L50431 42911
L50431 42797
L50445 42768
L50460 42754
L50488 42740
L50531 42740
L50560 42754
L50574 42768
L50588 42797
L50588 42911
" />
<path d="M50617 42611
L50617 42383
" />
<path d="M50731 42497
L50503 42497
" />
<path d="M50617 42240
L50617 42011
" />
<path d="M50731 42126
L50503 42126
" />
<path d="M48546 49340
L48246 49340
L48246 49269
L48260 49226
L48289 49197
L48318 49183
L48375 49169
L48418 49169
L48475 49183
L48503 49197
L48532 49226
L48546 49269
L48546 49340
" />
<path d="M48546 48883
L48546 49054
" />
<path d="M48546 48969
L48246 48969
L48289 48997
L48318 49026
L48332 49054
" />
<path d="M48246 48783
L48246 48597
L48360 48697
L48360 48654
L48375 48626
L48389 48612
L48418 48597
L48489 48597
L48518 48612
L48532 48626
L48546 48654
L48546 48740
L48532 48769
L48518 48783
" />
<path d="M50731 49754
L50731 49897
L50431 49897
" />
<path d="M50574 49654
L50574 49554
" />
<path d="M50731 49511
L50731 49654
L50431 49654
L50431 49511
" />
<path d="M50731 49383
L50431 49383
L50431 49311
L50445 49269
L50474 49240
L50503 49226
L50560 49211
L50603 49211
L50660 49226
L50688 49240
L50717 49269
L50731 49311
L50731 49383
" />
<path d="M50431 49111
L50431 48926
L50545 49026
L50545 48983
L50560 48954
L50574 48940
L50603 48926
L50674 48926
L50703 48940
L50717 48954
L50731 48983
L50731 49069
L50717 49097
L50703 49111
" />
<path d="M50731 48626
L50588 48726
" />
<path d="M50731 48797
L50431 48797
L50431 48683
L50445 48654
L50460 48640
L50488 48626
L50531 48626
L50560 48640
L50574 48654
L50588 48683
L50588 48797
" />
<path d="M50617 48497
L50617 48269
" />
<path d="M50731 48383
L50503 48383
" />
<path d="M50617 48126
L50617 47897
" />
<path d="M50731 48011
L50503 48011
" />
</g>
<g style="fill:#000000; fill-opacity:0.0; 
stroke:#000000; stroke-width:120; stroke-opacity:1; 
stroke-linecap:round; stroke-linejoin:round;">
<path d="M57654 39954
L58254 39554
" />
<path d="M57654 39554
L58254 39954
" />
<path d="M58254 39011
L58254 39354
" />
<path d="M58254 39182
L57654 39182
L57740 39239
L57797 39297
L57826 39354
" />
<path d="M59120 40561
L59120 40904
" />
<path d="M59120 40732
L58520 40732
L58606 40790
L58663 40847
L58692 40904
" />
<path d="M58520 40047
L58520 40161
L58549 40218
L58577 40247
L58663 40304
L58777 40332
L59006 40332
L59063 40304
L59092 40275
L59120 40218
L59120 40104
L59092 40047
L59063 40018
L59006 39990
L58863 39990
L58806 40018
L58777 40047
L58749 40104
L58749 40218
L58777 40275
L58806 40304
L58863 40332
" />
<path d="M59120 39732
L58520 39732
L58949 39532
L58520 39332
L59120 39332
" />
<path d="M59120 39047
L58520 39047
" />
<path d="M58806 39047
L58806 38704
" />
<path d="M59120 38704
L58520 38704
" />
<path d="M58720 38475
L58720 38161
L59120 38475
L59120 38161
" />
</g>
<g style="fill:#000000; fill-opacity:0.0; 
stroke:#000000; stroke-width:113; stroke-opacity:1; 
stroke-linecap:round; stroke-linejoin:round;">
</g>
<g style="fill:#000000; fill-opacity:0.0; 
stroke:#000000; stroke-width:112.5; stroke-opacity:1; 
stroke-linecap:round; stroke-linejoin:round;">
<path d="M52084 34226
L52084 33626
" />
<path d="M52556 34169
L52534 34198
L52470 34226
L52427 34226
L52363 34198
L52320 34141
L52299 34084
L52277 33969
L52277 33884
L52299 33769
L52320 33712
L52363 33655
L52427 33626
L52470 33626
L52534 33655
L52556 33684
" />
<path d="M52984 34226
L52727 34226
" />
<path d="M52856 34226
L52856 33626
L52813 33712
L52770 33769
L52727 33798
" />
</g>
<g style="fill:#000000; fill-opacity:0.0; 
stroke:#000000; stroke-width:113; stroke-opacity:1; 
stroke-linecap:round; stroke-linejoin:round;">
</g>
<g style="fill:#000000; fill-opacity:0.0; 
stroke:#000000; stroke-width:112.5; stroke-opacity:1; 
stroke-linecap:round; stroke-linejoin:round;">
<path d="M55478 34067
L55693 34067
" />
<path d="M55436 34238
L55586 33638
L55736 34238
" />
<path d="M55821 33638
L56078 33638
" />
<path d="M55950 34238
L55950 33638
" />
<path d="M56228 34238
L56228 33638
L56378 34067
L56528 33638
L56528 34238
" />
<path d="M56743 33924
L56893 33924
" />
<path d="M56957 34238
L56743 34238
L56743 33638
L56957 33638
" />
<path d="M57386 33667
L57343 33638
L57278 33638
L57214 33667
L57171 33724
L57150 33781
L57128 33896
L57128 33981
L57150 34096
L57171 34153
L57214 34210
L57278 34238
L57321 34238
L57386 34210
L57407 34181
L57407 33981
L57321 33981
" />
<path d="M57578 34067
L57793 34067
" />
<path d="M57536 34238
L57686 33638
L57836 34238
" />
<path d="M58050 33896
L58007 33867
L57986 33838
L57964 33781
L57964 33753
L57986 33696
L58007 33667
L58050 33638
L58136 33638
L58178 33667
L58200 33696
L58221 33753
L58221 33781
L58200 33838
L58178 33867
L58136 33896
L58050 33896
L58007 33924
L57986 33953
L57964 34010
L57964 34124
L57986 34181
L58007 34210
L58050 34238
L58136 34238
L58178 34210
L58200 34181
L58221 34124
L58221 34010
L58200 33953
L58178 33924
L58136 33896
" />
</g>
<g style="fill:#000000; fill-opacity:0.0; 
stroke:#000000; stroke-width:80; stroke-opacity:1; 
stroke-linecap:round; stroke-linejoin:round;">
<path d="M49295 34606
L48895 34606
L48895 34511
L48914 34453
L48952 34415
L48991 34396
L49067 34377
L49124 34377
L49200 34396
L49238 34415
L49276 34453
L49295 34511
L49295 34606
" />
<path d="M49029 34034
L49295 34034
" />
<path d="M48876 34130
L49162 34225
L49162 33977
" />
</g>
<g style="fill:#000000; fill-opacity:0.0; 
stroke:#000000; stroke-width:73.8189; stroke-opacity:1; 
stroke-linecap:round; stroke-linejoin:round;">
<path d="M49669 36597
L49669 36766
" />
<path d="M49669 36681
L49269 36681
L49326 36709
L49365 36737
L49384 36766
" />
<path d="M49669 36470
L49269 36470
L49669 36302
L49269 36302
" />
<path d="M49403 36034
L49669 36034
" />
<path d="M49250 36105
L49536 36175
L49536 35992
" />
<path d="M49669 35725
L49669 35894
" />
<path d="M49669 35809
L49269 35809
L49326 35838
L49365 35866
L49384 35894
" />
<path d="M49403 35472
L49669 35472
" />
<path d="M49250 35542
L49536 35613
L49536 35430
" />
<path d="M49441 35275
L49422 35303
L49403 35317
L49365 35331
L49345 35331
L49307 35317
L49288 35303
L49269 35275
L49269 35219
L49288 35191
L49307 35177
L49345 35163
L49365 35163
L49403 35177
L49422 35191
L49441 35219
L49441 35275
L49460 35303
L49479 35317
L49517 35331
L49593 35331
L49631 35317
L49650 35303
L49669 35275
L49669 35219
L49650 35191
L49631 35177
L49593 35163
L49517 35163
L49479 35177
L49460 35191
L49441 35219
" />
</g>
<g style="fill:#000000; fill-opacity:0.0; 
stroke:#000000; stroke-width:80; stroke-opacity:1; 
stroke-linecap:round; stroke-linejoin:round;">
<path d="M55767 45654
L55767 45254
L55862 45254
L55920 45273
L55958 45311
L55977 45349
L55996 45425
L55996 45482
L55977 45558
L55958 45596
L55920 45634
L55862 45654
L55767 45654
" />
<path d="M56129 45254
L56377 45254
L56243 45406
L56301 45406
L56339 45425
L56358 45444
L56377 45482
L56377 45577
L56358 45615
L56339 45634
L56301 45654
L56186 45654
L56148 45634
L56129 45615
" />
<path d="M57504 45261
L57752 45261
L57619 45414
L57676 45414
L57714 45433
L57733 45452
L57752 45490
L57752 45585
L57733 45623
L57714 45642
L57676 45661
L57561 45661
L57523 45642
L57504 45623
" />
<path d="M57866 45261
L58000 45661
L58133 45261
" />
<path d="M58438 45261
L58361 45261
L58323 45280
L58304 45300
L58266 45357
L58247 45433
L58247 45585
L58266 45623
L58285 45642
L58323 45661
L58400 45661
L58438 45642
L58457 45623
L58476 45585
L58476 45490
L58457 45452
L58438 45433
L58400 45414
L58323 45414
L58285 45433
L58266 45452
L58247 45490
" />
<path d="M55078 44197
L55078 43797
L55174 43797
L55231 43816
L55269 43854
L55288 43892
L55307 43968
L55307 44025
L55288 44102
L55269 44140
L55231 44178
L55174 44197
L55078 44197
" />
<path d="M55459 43835
L55478 43816
L55516 43797
L55612 43797
L55650 43816
L55669 43835
L55688 43873
L55688 43911
L55669 43968
L55440 44197
L55688 44197
" />
<path d="M56504 44261
L56752 44261
L56619 44414
L56676 44414
L56714 44433
L56733 44452
L56752 44490
L56752 44585
L56733 44623
L56714 44642
L56676 44661
L56561 44661
L56523 44642
L56504 44623
" />
<path d="M56866 44261
L57000 44661
L57133 44261
" />
<path d="M57438 44261
L57361 44261
L57323 44280
L57304 44300
L57266 44357
L57247 44433
L57247 44585
L57266 44623
L57285 44642
L57323 44661
L57400 44661
L57438 44642
L57457 44623
L57476 44585
L57476 44490
L57457 44452
L57438 44433
L57400 44414
L57323 44414
L57285 44433
L57266 44452
L57247 44490
" />
<path d="M47919 36562
L47938 36581
L47957 36638
L47957 36677
L47938 36734
L47900 36772
L47861 36791
L47785 36810
L47728 36810
L47652 36791
L47614 36772
L47576 36734
L47557 36677
L47557 36638
L47576 36581
L47595 36562
" />
<path d="M47557 36219
L47557 36296
L47576 36334
L47595 36353
L47652 36391
L47728 36410
L47880 36410
L47919 36391
L47938 36372
L47957 36334
L47957 36257
L47938 36219
L47919 36200
L47880 36181
L47785 36181
L47747 36200
L47728 36219
L47709 36257
L47709 36334
L47728 36372
L47747 36391
L47785 36410
" />
<path d="M48661 36738
L48661 36966
" />
<path d="M48661 36852
L48261 36852
L48319 36890
L48357 36928
L48376 36966
" />
<path d="M48395 36395
L48661 36395
" />
<path d="M48395 36566
L48604 36566
L48642 36547
L48661 36509
L48661 36452
L48642 36414
L48623 36395
" />
<path d="M48452 36071
L48452 36204
" />
<path d="M48661 36204
L48261 36204
L48261 36014
" />
<path d="M56954 26129
L56973 26148
L56992 26205
L56992 26243
L56973 26301
L56935 26339
L56897 26358
L56821 26377
L56764 26377
L56687 26358
L56649 26339
L56611 26301
L56592 26243
L56592 26205
L56611 26148
L56630 26129
" />
<path d="M56592 25767
L56592 25958
L56783 25977
L56764 25958
L56744 25920
L56744 25824
L56764 25786
L56783 25767
L56821 25748
L56916 25748
L56954 25767
L56973 25786
L56992 25824
L56992 25920
L56973 25958
L56954 25977
" />
<path d="M57661 27947
L57661 28176
" />
<path d="M57661 28061
L57261 28061
L57319 28099
L57357 28138
L57376 28176
" />
<path d="M57261 27699
L57261 27661
L57280 27623
L57300 27604
L57338 27585
L57414 27566
L57509 27566
L57585 27585
L57623 27604
L57642 27623
L57661 27661
L57661 27699
L57642 27738
L57623 27757
L57585 27776
L57509 27795
L57414 27795
L57338 27776
L57300 27757
L57280 27738
L57261 27699
" />
<path d="M57261 27319
L57261 27280
L57280 27242
L57300 27223
L57338 27204
L57414 27185
L57509 27185
L57585 27204
L57623 27223
L57642 27242
L57661 27280
L57661 27319
L57642 27357
L57623 27376
L57585 27395
L57509 27414
L57414 27414
L57338 27395
L57300 27376
L57280 27357
L57261 27319
" />
<path d="M57395 27014
L57661 27014
" />
<path d="M57433 27014
L57414 26995
L57395 26957
L57395 26900
L57414 26861
L57452 26842
L57661 26842
" />
<path d="M56252 42426
L56233 42446
L56176 42465
L56137 42465
L56080 42446
L56042 42407
L56023 42369
L56004 42293
L56004 42236
L56023 42160
L56042 42122
L56080 42084
L56137 42065
L56176 42065
L56233 42084
L56252 42103
" />
<path d="M56595 42198
L56595 42465
" />
<path d="M56499 42046
L56404 42331
L56652 42331
" />
<path d="M57714 42100
L57733 42080
L57771 42061
L57866 42061
L57904 42080
L57923 42100
L57942 42138
L57942 42176
L57923 42233
L57695 42461
L57942 42461
" />
<path d="M58095 42100
L58114 42080
L58152 42061
L58247 42061
L58285 42080
L58304 42100
L58323 42138
L58323 42176
L58304 42233
L58076 42461
L58323 42461
" />
<path d="M58495 42195
L58495 42595
" />
<path d="M58495 42214
L58533 42195
L58609 42195
L58647 42214
L58666 42233
L58685 42271
L58685 42385
L58666 42423
L58647 42442
L58609 42461
L58533 42461
L58495 42442
" />
<path d="M56252 43529
L56233 43548
L56176 43567
L56137 43567
L56080 43548
L56042 43510
L56023 43472
L56004 43395
L56004 43338
L56023 43262
L56042 43224
L56080 43186
L56137 43167
L56176 43167
L56233 43186
L56252 43205
" />
<path d="M56385 43167
L56633 43167
L56499 43319
L56556 43319
L56595 43338
L56614 43357
L56633 43395
L56633 43491
L56614 43529
L56595 43548
L56556 43567
L56442 43567
L56404 43548
L56385 43529
" />
<path d="M57714 43200
L57733 43180
L57771 43161
L57866 43161
L57904 43180
L57923 43200
L57942 43238
L57942 43276
L57923 43333
L57695 43561
L57942 43561
" />
<path d="M58095 43200
L58114 43180
L58152 43161
L58247 43161
L58285 43180
L58304 43200
L58323 43238
L58323 43276
L58304 43333
L58076 43561
L58323 43561
" />
<path d="M58495 43295
L58495 43695
" />
<path d="M58495 43314
L58533 43295
L58609 43295
L58647 43314
L58666 43333
L58685 43371
L58685 43485
L58666 43523
L58647 43542
L58609 43561
L58533 43561
L58495 43542
" />
<path d="M56659 37684
L56678 37703
L56697 37760
L56697 37799
L56678 37856
L56640 37894
L56602 37913
L56525 37932
L56468 37932
L56392 37913
L56354 37894
L56316 37856
L56297 37799
L56297 37760
L56316 37703
L56335 37684
" />
<path d="M56335 37532
L56316 37513
L56297 37475
L56297 37380
L56316 37341
L56335 37322
L56373 37303
L56411 37303
L56468 37322
L56697 37551
L56697 37303
" />
<path d="M56661 39947
L56661 40176
" />
<path d="M56661 40061
L56261 40061
L56319 40099
L56357 40138
L56376 40176
" />
<path d="M56261 39699
L56261 39661
L56280 39623
L56300 39604
L56338 39585
L56414 39566
L56509 39566
L56585 39585
L56623 39604
L56642 39623
L56661 39661
L56661 39699
L56642 39738
L56623 39757
L56585 39776
L56509 39795
L56414 39795
L56338 39776
L56300 39757
L56280 39738
L56261 39699
" />
<path d="M56261 39319
L56261 39280
L56280 39242
L56300 39223
L56338 39204
L56414 39185
L56509 39185
L56585 39204
L56623 39223
L56642 39242
L56661 39280
L56661 39319
L56642 39357
L56623 39376
L56585 39395
L56509 39414
L56414 39414
L56338 39395
L56300 39376
L56280 39357
L56261 39319
" />
<path d="M56395 39014
L56661 39014
" />
<path d="M56433 39014
L56414 38995
L56395 38957
L56395 38900
L56414 38861
L56452 38842
L56661 38842
" />
<path d="M57374 30419
L57355 30438
L57298 30457
L57259 30457
L57202 30438
L57164 30400
L57145 30361
L57126 30285
L57126 30228
L57145 30152
L57164 30114
L57202 30076
L57259 30057
L57298 30057
L57355 30076
L57374 30095
" />
<path d="M57755 30457
L57526 30457
" />
<path d="M57640 30457
L57640 30057
L57602 30114
L57564 30152
L57526 30171
" />
<path d="M57052 29661
L56823 29661
" />
<path d="M56938 29661
L56938 29261
L56900 29319
L56861 29357
L56823 29376
" />
<path d="M57300 29261
L57338 29261
L57376 29280
L57395 29300
L57414 29338
L57433 29414
L57433 29509
L57414 29585
L57395 29623
L57376 29642
L57338 29661
L57300 29661
L57261 29642
L57242 29623
L57223 29585
L57204 29509
L57204 29414
L57223 29338
L57242 29300
L57261 29280
L57300 29261
" />
<path d="M57680 29261
L57719 29261
L57757 29280
L57776 29300
L57795 29338
L57814 29414
L57814 29509
L57795 29585
L57776 29623
L57757 29642
L57719 29661
L57680 29661
L57642 29642
L57623 29623
L57604 29585
L57585 29509
L57585 29414
L57604 29338
L57623 29300
L57642 29280
L57680 29261
" />
<path d="M57985 29395
L57985 29661
" />
<path d="M57985 29433
L58004 29414
L58042 29395
L58100 29395
L58138 29414
L58157 29452
L58157 29661
" />
</g>
<g style="fill:#000000; fill-opacity:0.0; 
stroke:#000000; stroke-width:120; stroke-opacity:1; 
stroke-linecap:round; stroke-linejoin:round;">
<path d="M56300 53642
L56300 54071
L56271 54157
L56214 54214
L56128 54242
L56071 54242
" />
<path d="M56900 54242
L56557 54242
" />
<path d="M56728 54242
L56728 53642
L56671 53728
L56614 53785
L56557 53814
" />
<path d="M55228 51142
L55228 51628
L55257 51685
L55285 51714
L55342 51742
L55457 51742
L55514 51714
L55542 51685
L55571 51628
L55571 51142
" />
<path d="M55828 51714
L55914 51742
L56057 51742
L56114 51714
L56142 51685
L56171 51628
L56171 51571
L56142 51514
L56114 51485
L56057 51457
L55942 51428
L55885 51400
L55857 51371
L55828 51314
L55828 51257
L55857 51200
L55885 51171
L55942 51142
L56085 51142
L56171 51171
" />
<path d="M56628 51428
L56714 51457
L56742 51485
L56771 51542
L56771 51628
L56742 51685
L56714 51714
L56657 51742
L56428 51742
L56428 51142
L56628 51142
L56685 51171
L56714 51200
L56742 51257
L56742 51314
L56714 51371
L56685 51400
L56628 51428
L56428 51428
" />
<path d="M56885 51800
L57342 51800
" />
<path d="M57800 51742
L57457 51742
" />
<path d="M57628 51742
L57628 51142
L57571 51228
L57514 51285
L57457 51314
" />
</g>
<g style="fill:#000000; fill-opacity:0.0; 
stroke:#000000; stroke-width:35; stroke-opacity:1; 
stroke-linecap:round; stroke-linejoin:round;">
<path d="M62168 24217
L61868 24217
L61868 24146
L61882 24103
L61911 24074
L61940 24060
L61997 24046
L62040 24046
L62097 24060
L62125 24074
L62154 24103
L62168 24146
L62168 24217
" />
<path d="M61868 23774
L61868 23917
L62011 23931
L61997 23917
L61982 23888
L61982 23817
L61997 23788
L62011 23774
L62040 23760
L62111 23760
L62140 23774
L62154 23788
L62168 23817
L62168 23888
L62154 23917
L62140 23931
" />
<path d="M65082 24824
L65082 24967
L64782 24967
" />
<path d="M64924 24724
L64924 24624
" />
<path d="M65082 24581
L65082 24724
L64782 24724
L64782 24581
" />
<path d="M65082 24453
L64782 24453
L64782 24381
L64796 24338
L64824 24310
L64853 24296
L64910 24281
L64953 24281
L65010 24296
L65039 24310
L65067 24338
L65082 24381
L65082 24453
" />
<path d="M64967 24153
L64967 23924
" />
<path d="M65082 23610
L64939 23710
" />
<path d="M65082 23781
L64782 23781
L64782 23667
L64796 23638
L64810 23624
L64839 23610
L64882 23610
L64910 23624
L64924 23638
L64939 23667
L64939 23781
" />
<path d="M64796 23324
L64782 23353
L64782 23396
L64796 23438
L64824 23467
L64853 23481
L64910 23496
L64953 23496
L65010 23481
L65039 23467
L65067 23438
L65082 23396
L65082 23367
L65067 23324
L65053 23310
L64953 23310
L64953 23367
" />
<path d="M64924 23081
L64939 23038
L64953 23024
L64982 23010
L65024 23010
L65053 23024
L65067 23038
L65082 23067
L65082 23181
L64782 23181
L64782 23081
L64796 23053
L64810 23038
L64839 23024
L64867 23024
L64896 23038
L64910 23053
L64924 23081
L64924 23181
" />
<path d="M55894 26381
L55794 26238
" />
<path d="M55723 26381
L55723 26081
L55837 26081
L55866 26095
L55880 26109
L55894 26138
L55894 26181
L55880 26209
L55866 26224
L55837 26238
L55723 26238
" />
<path d="M56166 26081
L56023 26081
L56009 26224
L56023 26209
L56052 26195
L56123 26195
L56152 26209
L56166 26224
L56180 26252
L56180 26324
L56166 26352
L56152 26366
L56123 26381
L56052 26381
L56023 26366
L56009 26352
" />
<path d="M55777 28940
L55634 28940
L55634 28640
" />
<path d="M55877 28940
L55877 28640
L55948 28640
L55991 28654
L56019 28683
L56034 28711
L56048 28768
L56048 28811
L56034 28868
L56019 28897
L55991 28926
L55948 28940
L55877 28940
" />
<path d="M56348 28940
L56248 28797
" />
<path d="M56177 28940
L56177 28640
L56291 28640
L56319 28654
L56334 28668
L56348 28697
L56348 28740
L56334 28768
L56319 28783
L56291 28797
L56177 28797
" />
</g>
<g style="fill:#000000; fill-opacity:0.0; 
stroke:#000000; stroke-width:80; stroke-opacity:1; 
stroke-linecap:round; stroke-linejoin:round;">
<path d="M53726 48077
L53464 48244
" />
<path d="M53726 48363
L53176 48363
L53176 48172
L53202 48124
L53228 48101
L53281 48077
L53359 48077
L53412 48101
L53438 48124
L53464 48172
L53464 48363
" />
<path d="M53228 47886
L53202 47863
L53176 47815
L53176 47696
L53202 47648
L53228 47624
L53281 47601
L53333 47601
L53412 47624
L53726 47910
L53726 47601
" />
<path d="M53359 47172
L53726 47172
" />
<path d="M53150 47291
L53543 47410
L53543 47101
" />
<path d="M53235 46134
L53235 45825
L53445 45992
L53445 45920
L53471 45873
L53497 45849
L53549 45825
L53680 45825
L53733 45849
L53759 45873
L53785 45920
L53785 46063
L53759 46111
L53733 46134
" />
<path d="M53235 45658
L53235 45349
L53445 45515
L53445 45444
L53471 45396
L53497 45373
L53549 45349
L53680 45349
L53733 45373
L53759 45396
L53785 45444
L53785 45587
L53759 45634
L53733 45658
" />
<path d="M53235 45039
L53235 44992
L53261 44944
L53287 44920
L53340 44896
L53445 44873
L53576 44873
L53680 44896
L53733 44920
L53759 44944
L53785 44992
L53785 45039
L53759 45087
L53733 45111
L53680 45134
L53576 45158
L53445 45158
L53340 45134
L53287 45111
L53261 45087
L53235 45039
" />
</g>
<g style="fill:#000000; fill-opacity:0.0; 
stroke:#000000; stroke-width:35; stroke-opacity:1; 
stroke-linecap:round; stroke-linejoin:round;">
<path d="M51578 49399
L51278 49399
L51278 49328
L51292 49285
L51320 49256
L51349 49242
L51406 49228
L51449 49228
L51506 49242
L51535 49256
L51563 49285
L51578 49328
L51578 49399
" />
<path d="M51578 48942
L51578 49114
" />
<path d="M51578 49028
L51278 49028
L51320 49056
L51349 49085
L51363 49114
" />
<path d="M51378 48685
L51578 48685
" />
<path d="M51263 48756
L51478 48828
L51478 48642
" />
<path d="M53664 49737
L53664 49880
L53364 49880
" />
<path d="M53507 49637
L53507 49537
" />
<path d="M53664 49494
L53664 49637
L53364 49637
L53364 49494
" />
<path d="M53664 49366
L53364 49366
L53364 49294
L53379 49251
L53407 49223
L53436 49209
L53493 49194
L53536 49194
L53593 49209
L53621 49223
L53650 49251
L53664 49294
L53664 49366
" />
<path d="M53364 49094
L53364 48909
L53479 49009
L53479 48966
L53493 48937
L53507 48923
L53536 48909
L53607 48909
L53636 48923
L53650 48937
L53664 48966
L53664 49051
L53650 49080
L53636 49094
" />
<path d="M53379 48623
L53364 48651
L53364 48694
L53379 48737
L53407 48766
L53436 48780
L53493 48794
L53536 48794
L53593 48780
L53621 48766
L53650 48737
L53664 48694
L53664 48666
L53650 48623
L53636 48609
L53536 48609
L53536 48666
" />
</g>
<g style="fill:#000000; fill-opacity:0.0; 
stroke:#000000; stroke-width:120; stroke-opacity:1; 
stroke-linecap:round; stroke-linejoin:round;">
<path d="M60589 44663
L60674 44691
L60817 44691
L60874 44663
L60903 44634
L60932 44577
L60932 44520
L60903 44463
L60874 44434
L60817 44405
L60703 44377
L60646 44348
L60617 44320
L60589 44263
L60589 44205
L60617 44148
L60646 44120
L60703 44091
L60846 44091
L60932 44120
" />
<path d="M61189 44691
L61189 44091
L61417 44091
L61474 44120
L61503 44148
L61532 44205
L61532 44291
L61503 44348
L61474 44377
L61417 44405
L61189 44405
" />
<path d="M61789 44377
L61989 44377
" />
<path d="M62074 44691
L61789 44691
L61789 44091
L62074 44091
" />
<path d="M62303 44520
L62589 44520
" />
<path d="M62246 44691
L62446 44091
L62646 44691
" />
<path d="M62846 44691
L62846 44091
" />
<path d="M63189 44691
L62932 44348
" />
<path d="M63189 44091
L62846 44434
" />
<path d="M63446 44377
L63646 44377
" />
<path d="M63732 44691
L63446 44691
L63446 44091
L63732 44091
" />
<path d="M64332 44691
L64132 44405
" />
<path d="M63989 44691
L63989 44091
L64217 44091
L64274 44120
L64303 44148
L64332 44205
L64332 44291
L64303 44348
L64274 44377
L64217 44405
L63989 44405
" />
</g> 
</svg>
